<?xml version="1.0" encoding="utf-8"?>
<!-- Generator: Adobe Illustrator 17.0.0, SVG Export Plug-In . SVG Version: 6.00 Build 0)  -->
<!DOCTYPE svg PUBLIC "-//W3C//DTD SVG 1.1//EN" "http://www.w3.org/Graphics/SVG/1.1/DTD/svg11.dtd">
<svg version="1.1" id="Capa_1" xmlns="http://www.w3.org/2000/svg" xmlns:xlink="http://www.w3.org/1999/xlink" x="0px" y="0px"
	 width="841.89px" height="595.28px" viewBox="0 0 841.89 595.28" enable-background="new 0 0 841.89 595.28" xml:space="preserve">
<g>
	<g>
		<path fill="#121B49" d="M240.952,337.463c-4.844-8.369-9.558-16.515-14.273-24.661c-1.349-2.331-2.992-4.545-3.979-7.02
			c-1.495-3.752-3.932-4.671-7.864-4.626c-19.704,0.223-39.412,0.102-59.118,0.101c-1.015,0-2.03,0-3.44,0
			c0.578,1.13,0.948,1.94,1.392,2.709c9.839,17.048,19.698,34.085,29.49,51.159c0.426,0.743,0.667,2.055,0.299,2.717
			c-3.464,6.24-7.079,12.397-10.827,18.882c-5.678-9.843-11.19-19.405-16.71-28.964c-10.412-18.031-20.805-36.074-31.282-54.067
			c-1-1.717-1.141-2.946-0.087-4.76c16.128-27.77,32.191-55.578,48.165-83.436c1.286-2.243,2.597-3.136,5.263-3.127
			c31.945,0.108,63.89,0.099,95.835,0.009c2.39-0.007,3.476,0.917,4.882,2.734c3.87,5.004,3.432,9.107,0.133,14.604
			c-13.697,22.826-26.747,46.04-40.128,69.058c-1.096,1.885-1.072,3.199,0.025,5.038c4.407,7.382,8.687,14.842,12.873,22.352
			c0.536,0.962,0.757,2.685,0.253,3.547C248.41,325.61,244.732,331.372,240.952,337.463z M152.086,281.329
			c22.472,0,44.337,0.028,66.2-0.091c0.987-0.005,2.333-1.121,2.896-2.081c7.597-12.952,15.091-25.965,22.596-38.972
			c3.34-5.789,6.646-11.597,10.049-17.539c-0.639-0.146-0.921-0.268-1.203-0.268c-21.565-0.01-43.129-0.038-64.693,0.074
			c-0.996,0.005-2.364,1.056-2.921,1.997c-5.746,9.715-11.365,19.505-17.01,29.28C162.783,262.765,157.576,271.808,152.086,281.329z
			"/>
		<path fill="#121B49" d="M286.613,219.072c4.356,7.558,8.526,14.805,12.708,22.045c9.273,16.052,18.525,32.116,27.874,48.124
			c0.947,1.622,0.701,2.734-0.155,4.212c-16.292,28.142-32.525,56.319-48.852,84.44c-0.544,0.937-1.955,1.949-2.965,1.952
			c-31.933,0.099-63.866,0.078-95.799,0.066c-0.183,0-0.367-0.123-0.837-0.291c3.583-6.201,7.07-12.394,10.777-18.453
			c0.456-0.746,2.081-1.09,3.166-1.092c23.224-0.061,46.448-0.086,69.672,0.012c2.499,0.011,3.807-0.77,5.056-2.955
			c12.077-21.128,24.267-42.191,36.51-63.223c1.134-1.949,1.129-3.345-0.027-5.319c-9.262-15.815-18.404-31.701-27.5-47.613
			c-0.51-0.893-0.771-2.472-0.327-3.281C279.294,231.547,282.878,225.512,286.613,219.072z"/>
	</g>
</g>
<g>
	<g>
		<path fill="#121B49" d="M391.758,229.779c0.654,0.146,1.363,0.182,2.126,0.109c0.763-0.072,1.434,0.073,2.017,0.436
			c0.071,0,0.327,0.073,0.763,0.218c0.436,0.146,0.962,0.327,1.581,0.545c0.616,0.218,1.199,0.473,1.744,0.763
			c0.545,0.292,0.962,0.654,1.254,1.09c0.29,0,0.635,0.164,1.036,0.49c0.398,0.327,0.78,0.673,1.145,1.036
			c0.363,0.365,0.671,0.691,0.926,0.981c0.254,0.292,0.382,0.365,0.382,0.218c1.09,0.8,1.962,1.798,2.616,2.998
			c0.654,1.199,1.379,2.308,2.18,3.325v0.327c0,0.654,0.163,1.199,0.49,1.635s0.491,0.981,0.491,1.635
			c0,0.365-0.038,0.619-0.109,0.763c0.363,0.872,0.545,1.673,0.545,2.398c0,0.583-0.038,1.182-0.109,1.799
			c-0.073,0.618-0.109,1.218-0.109,1.799c0,0.364,0,0.672,0,0.926c0,0.255,0.072,0.564,0.218,0.927
			c-0.365,0.364-0.6,0.727-0.708,1.09c-0.109,0.365-0.201,0.728-0.272,1.09c-0.073,0.364-0.164,0.691-0.273,0.981
			c-0.109,0.291-0.346,0.509-0.708,0.654c-0.146,0.365-0.218,0.746-0.218,1.145c0,0.4-0.146,0.746-0.436,1.035
			c-0.218,0.292-0.455,0.491-0.708,0.6c-0.256,0.109-0.382,0.382-0.382,0.818c-0.436,0.945-1.163,1.689-2.18,2.234
			c-1.019,0.545-1.708,1.327-2.071,2.344c0.29,0.8,0.78,1.308,1.472,1.526c0.689,0.218,1.325,0.619,1.907,1.199
			c0.508,0.146,0.872,0.419,1.09,0.817c0.218,0.4,0.545,0.673,0.981,0.818c0.654,0.583,1.199,1.199,1.635,1.853
			c0.436,0.654,0.834,1.381,1.199,2.18c0.944,1.455,1.69,3.106,2.235,4.96c0.545,1.853,0.817,4.488,0.817,7.903
			c0,1.163-0.092,2.108-0.272,2.834c-0.182,0.728-0.364,1.327-0.545,1.799c-0.182,0.474-0.364,0.872-0.545,1.199
			c-0.182,0.327-0.272,0.708-0.272,1.145c0,0.218,0.071,0.473,0.218,0.763c-0.073,0.728-0.364,1.272-0.872,1.635
			c-0.509,0.365-0.763,0.945-0.763,1.744c-0.073,0.436-0.272,0.8-0.599,1.09c-0.327,0.291-0.637,0.545-0.927,0.763
			c-0.364,0.436-0.583,0.945-0.654,1.526c-0.073,0.582-0.4,0.98-0.981,1.198c-0.727,0.292-1.272,0.782-1.635,1.472
			c-0.365,0.692-0.945,1.145-1.744,1.363c-1.308,1.308-2.908,2.525-4.796,3.651c-1.891,1.126-3.889,1.761-5.996,1.907
			c-0.654,0.072-1.253,0.273-1.798,0.6c-0.545,0.327-1.145,0.491-1.799,0.491c-0.364,0-0.763-0.109-1.199-0.327
			c-0.8,0.508-1.689,0.78-2.67,0.817c-0.981,0.036-2.017,0.055-3.107,0.055c-1.455,0-2.616-0.146-3.488-0.437
			c-0.292,0.146-0.583,0.219-0.872,0.219c-0.292,0-0.545-0.038-0.763-0.109c-0.218-0.073-0.474-0.109-0.763-0.109h-0.981
			c-0.583,0-0.91-0.182-0.981-0.545c-0.654-0.436-1.472-0.618-2.453-0.545c-0.981,0.071-1.763-0.146-2.344-0.654
			c-0.365-0.146-0.801-0.272-1.308-0.381c-0.509-0.109-0.981-0.237-1.417-0.382c-0.583-0.29-1.109-0.654-1.581-1.09
			c-0.474-0.437-1.073-0.726-1.799-0.872c-0.727-0.218-1.363-0.6-1.908-1.145s-1.09-1.126-1.635-1.744
			c-0.545-0.617-1.09-1.217-1.635-1.799c-0.545-0.581-1.182-1.053-1.908-1.417c-0.073-0.654-0.255-1.199-0.545-1.635
			c-0.292-0.437-0.618-0.872-0.981-1.309c-0.365-0.436-0.692-0.889-0.981-1.362c-0.291-0.472-0.473-1.071-0.545-1.799
			c-0.436-0.581-0.673-1.253-0.708-2.017c-0.038-0.763-0.272-1.434-0.708-2.017c0-0.581-0.109-1.036-0.327-1.362
			c-0.218-0.327-0.327-0.745-0.327-1.254v-0.436c-0.146-0.726-0.218-1.235-0.218-1.526c0-1.453,0.363-2.707,1.09-3.761
			c0.726-1.053,1.854-1.652,3.379-1.799c0.507,0.073,0.998,0.146,1.472,0.218c0.472,0.073,0.962,0.109,1.472,0.109
			c1.017,0,2.088-0.036,3.215-0.109c1.126-0.072,2.271-0.109,3.434-0.109c1.308,0,2.742,0,4.306,0c1.562,0,2.67,0.327,3.325,0.981
			c0.145,0.8,0.381,1.49,0.708,2.071c0.327,0.583,0.491,1.345,0.491,2.289v0.763c0.218,0.218,0.344,0.528,0.381,0.927
			c0.036,0.4,0.199,0.673,0.491,0.817c0.799,1.237,1.798,2.327,2.998,3.271c1.199,0.945,2.742,1.417,4.633,1.417
			c1.017,0,1.834-0.109,2.453-0.327c0.617-0.218,1.145-0.472,1.581-0.763c0.436-0.29,0.854-0.581,1.253-0.872
			c0.399-0.29,0.889-0.545,1.472-0.763c0.145-0.145,0.309-0.382,0.491-0.708c0.181-0.327,0.381-0.671,0.6-1.036
			c0.218-0.363,0.398-0.69,0.545-0.981c0.145-0.29,0.29-0.436,0.436-0.436c0.071-0.508,0.109-0.944,0.109-1.308
			c0-0.363,0.072-0.763,0.218-1.199l-0.109-0.109c0-0.145,0.055-0.235,0.164-0.272c0.109-0.036,0.164-0.09,0.164-0.164
			c0-0.072-0.019-0.109-0.055-0.109c-0.037,0-0.054-0.036-0.054-0.109c-0.292-0.872-0.436-1.815-0.436-2.834
			c0-1.017-0.327-1.853-0.981-2.507c-0.436-0.436-0.746-0.998-0.927-1.689c-0.182-0.69-0.708-1.036-1.581-1.036
			s-1.599-0.218-2.18-0.654c-0.583-0.436-1.381-0.617-2.398-0.545h-1.09c-0.872,0-1.526-0.09-1.962-0.272
			c-0.436-0.181-0.763-0.417-0.981-0.708c-0.218-0.29-0.419-0.581-0.599-0.872c-0.183-0.29-0.455-0.545-0.818-0.763
			c-0.583-0.581-0.872-1.417-0.872-2.507c0-0.581,0.036-1.126,0.109-1.635c0.071-0.507,0.109-1.053,0.109-1.635v-0.763
			c0.071-0.145,0.109-0.327,0.109-0.545c0-0.218-0.038-0.417-0.109-0.599c-0.073-0.181-0.109-0.344-0.109-0.491
			c0-1.162,0.218-2.017,0.654-2.562c0.436-0.545,0.981-0.944,1.635-1.199c0.654-0.254,1.362-0.417,2.125-0.491
			c0.763-0.071,1.507-0.218,2.235-0.436c0.436-0.218,0.998-0.49,1.689-0.817c0.69-0.327,1.344-0.708,1.962-1.145
			c0.617-0.436,1.145-0.908,1.581-1.417c0.436-0.508,0.654-1.09,0.654-1.744c0-0.145-0.019-0.29-0.055-0.436
			c-0.037-0.145-0.054-0.29-0.054-0.436c0-0.29,0.054-0.581,0.164-0.872c0.109-0.29,0.163-0.545,0.163-0.763
			c0-0.654-0.163-1.235-0.49-1.744c-0.327-0.507-0.564-1.09-0.708-1.744c-0.509-1.235-1.545-2.216-3.107-2.943
			c-1.563-0.726-2.926-1.09-4.088-1.09c-0.218,0-0.618,0.092-1.199,0.272c-0.583,0.182-1.182,0.419-1.799,0.708
			c-0.618,0.292-1.199,0.654-1.744,1.09s-0.891,0.909-1.036,1.417c-0.509,0.583-0.891,1.253-1.145,2.017
			c-0.255,0.763-0.6,1.472-1.036,2.125c-1.744,0.728-3.689,1.145-5.832,1.254c-2.145,0.109-4.052,0.164-5.723,0.164
			c-0.583,0-1.291-0.017-2.125-0.055c-0.836-0.036-1.689-0.109-2.562-0.218c-0.872-0.109-1.635-0.272-2.289-0.49
			c-0.654-0.218-1.055-0.508-1.199-0.872c0-0.581-0.128-1.107-0.382-1.581c-0.255-0.472-0.381-0.998-0.381-1.581
			c0-1.017,0.164-2.034,0.491-3.052c0.327-1.017,0.726-1.979,1.199-2.889c0.472-0.908,0.944-1.707,1.417-2.398
			c0.472-0.689,0.853-1.18,1.145-1.471c0.363-0.944,0.817-1.69,1.362-2.235c0.545-0.545,1.107-1.036,1.69-1.472
			c0.581-0.436,1.18-0.853,1.798-1.253c0.617-0.398,1.216-0.889,1.799-1.472c1.379-0.581,2.67-1.162,3.87-1.744
			c1.199-0.581,2.524-1.162,3.979-1.744c1.235-0.145,2.489-0.29,3.761-0.436c1.271-0.145,2.562-0.218,3.87-0.218
			c0.581,0,1.162,0.037,1.744,0.109c0.581,0.073,1.162,0.109,1.744,0.109c0.29,0,0.526-0.055,0.708-0.164
			c0.18-0.109,0.417-0.199,0.708-0.272c0.29,0.073,0.763,0.109,1.417,0.109c0.363,0,0.744-0.017,1.145-0.054
			c0.398-0.036,0.78-0.055,1.145-0.055c0.508,0,0.998,0.038,1.472,0.109C390.977,229.307,391.394,229.489,391.758,229.779z
			 M374.099,293.439v-0.218c0-0.145-0.109-0.218-0.327-0.218c-0.073,0-0.164,0.019-0.272,0.054
			c-0.109,0.038-0.237,0.055-0.382,0.055c-0.146,0-0.218-0.036-0.218-0.109c0,0.146-0.073,0.236-0.218,0.272
			c-0.146,0.037-0.218,0.127-0.218,0.272c0.071,0.073,0.145,0.109,0.218,0.109c0.218-0.071,0.472-0.09,0.763-0.055
			C373.735,293.64,373.953,293.585,374.099,293.439z M384.346,300.633v-0.108c0-0.146-0.055-0.2-0.164-0.164
			c-0.109,0.037-0.237,0.019-0.382-0.055c0,0.073-0.019,0.109-0.054,0.109c-0.038,0-0.055,0.037-0.055,0.109
			c0,0.073,0.072,0.108,0.218,0.108h0.327H384.346z M393.502,292.676c0.218-0.072,0.327-0.181,0.327-0.327
			c0-0.145-0.182-0.218-0.545-0.218c-0.583,0-0.981,0.109-1.199,0.327c0.218,0.218,0.436,0.327,0.654,0.327
			c0.145,0,0.272-0.017,0.381-0.055C393.23,292.694,393.356,292.676,393.502,292.676z M393.394,267.604v-0.218
			c0-0.218-0.109-0.327-0.327-0.327c-0.146,0-0.291,0.038-0.436,0.109c-0.146,0.073-0.255,0.109-0.327,0.109
			c0,0.218,0.071,0.327,0.218,0.327c0.145,0,0.218,0.073,0.218,0.218h0.218v-0.109c0-0.071,0.072-0.109,0.218-0.109H393.394z
			 M393.176,299.979v-0.108c0-0.071-0.073-0.109-0.218-0.109h-0.545h-0.109c0,0.218,0.071,0.327,0.218,0.327
			c0.145,0,0.254-0.017,0.327-0.055C392.92,299.998,393.029,299.979,393.176,299.979z M396.991,269.675v-0.218
			c0-0.218-0.109-0.327-0.327-0.327c-0.218,0-0.436,0.073-0.654,0.218c-0.218,0.146-0.327,0.365-0.327,0.654v0.109
			C396.19,270.111,396.626,269.966,396.991,269.675z M398.844,285.917c-0.364-0.29-0.746-0.453-1.145-0.491
			c-0.4-0.036-0.891-0.055-1.472-0.055c-0.146,0.146-0.218,0.292-0.218,0.436c0,0.146,0.199,0.292,0.6,0.436
			c0.398,0.146,0.744,0.292,1.036,0.436c0.145-0.145,0.381-0.199,0.708-0.164C398.681,286.554,398.844,286.354,398.844,285.917z
			 M397.1,273.926c0-0.145-0.109-0.218-0.327-0.218c-0.146,0-0.218,0.038-0.218,0.109c0,0.073,0.036,0.146,0.109,0.218
			C396.953,274.036,397.1,274,397.1,273.926z M397.536,262.481v-0.109c0-0.145-0.054-0.199-0.163-0.164
			c-0.109,0.038-0.201,0.019-0.273-0.054c-0.073,0.073-0.109,0.182-0.109,0.327l0.109,0.109c0.072,0,0.145-0.017,0.218-0.055
			C397.389,262.5,397.462,262.481,397.536,262.481z M400.479,271.964v-0.218c0-0.071-0.055-0.09-0.164-0.054
			c-0.109,0.038-0.201,0.019-0.272-0.055v0.109c0,0.146,0.055,0.201,0.164,0.164C400.315,271.874,400.406,271.893,400.479,271.964z
			 M402.005,277.851h-0.218l-0.109-0.109c-0.073,0-0.128-0.017-0.164-0.055c-0.038-0.036-0.092-0.054-0.164-0.054
			c-0.146,0-0.346,0.038-0.6,0.109c-0.255,0.073-0.381,0.255-0.381,0.545c0,0.218,0.071,0.327,0.218,0.327
			c0.145-0.071,0.344-0.09,0.6-0.055c0.254,0.038,0.453-0.054,0.6-0.272c0.072,0.073,0.145,0.109,0.218,0.109v-0.109v-0.327V277.851
			z M404.839,285.59c-0.654-0.654-1.346-1.017-2.071-1.09c-0.218,0.073-0.327,0.327-0.327,0.763c0.436,0.436,0.799,0.728,1.09,0.872
			c0.145,0.073,0.254,0.073,0.327,0C404.366,286.135,404.693,285.955,404.839,285.59z"/>
		<path fill="#121B49" d="M428.166,229.452c0.581,0.073,1.181,0.109,1.799,0.109c0.616,0,1.216,0,1.799,0
			c0.943,0,1.853-0.071,2.725-0.218c0.872-0.145,1.707-0.218,2.507-0.218c0.508,0,0.998,0.055,1.472,0.164
			c0.472,0.109,0.998,0.164,1.581,0.164c0.362,0,0.654-0.036,0.872-0.109c0.289,0.146,0.545,0.236,0.763,0.272
			c0.218,0.037,0.472,0.054,0.764,0.054c0.436,0,0.853-0.017,1.253-0.054c0.398-0.036,0.817-0.055,1.254-0.055
			c0.726,0,1.434,0.038,2.126,0.109c0.689,0.073,1.434,0.109,2.234,0.109c0.943,0,1.889-0.017,2.834-0.055
			c0.943-0.036,1.889-0.055,2.834-0.055c1.744,0,3.342,0.128,4.797,0.382c1.452,0.255,2.905,0.381,4.36,0.381
			c1.234,0,2.306,0.201,3.216,0.6c0.907,0.4,1.979,0.6,3.215,0.6c1.235,0.364,2.235,0.872,2.998,1.526
			c0.763,0.654,1.652,1.164,2.671,1.526c0.436,0.073,0.799,0.201,1.09,0.381c0.29,0.182,0.581,0.381,0.872,0.6
			c0.437,0.364,0.927,0.6,1.472,0.708s0.962,0.381,1.254,0.817c0.726,0.583,1.434,1.09,2.125,1.526
			c0.69,0.436,1.29,1.054,1.799,1.853c0.654,0.436,1.289,0.91,1.907,1.417c0.617,0.509,1.145,1.127,1.581,1.853
			c0.289,0.365,0.835,0.981,1.635,1.854c0.799,0.872,1.199,1.708,1.199,2.507c0.581,0.872,1.216,1.945,1.908,3.216
			c0.689,1.272,1.035,2.163,1.035,2.671v0.654c0,0.583,0.181,1,0.545,1.253c0.363,0.256,0.545,0.564,0.545,0.927
			c0,0.218-0.037,0.364-0.108,0.436c0,0.509,0.145,1.073,0.436,1.689c0.29,0.619,0.437,1.327,0.437,2.126
			c0,0.291-0.038,0.509-0.109,0.654c0.071,0.292,0.145,0.528,0.218,0.708c0.071,0.182,0.181,0.419,0.327,0.708
			c-0.073,0.365-0.092,0.763-0.055,1.199c0.036,0.436-0.019,0.8-0.163,1.09c0.071,0.292,0.199,0.545,0.382,0.763
			c0.18,0.218,0.308,0.436,0.381,0.654c-0.073,1.163-0.128,2.362-0.163,3.597c-0.038,1.236-0.055,2.253-0.055,3.052
			c0,0.436,0.036,0.872,0.109,1.308c0.071,0.436,0.108,0.836,0.108,1.199c0,0.365-0.092,0.708-0.272,1.036
			c-0.182,0.327-0.272,0.673-0.272,1.036c0,0.146,0.018,0.31,0.055,0.491c0.036,0.182,0.055,0.346,0.055,0.49
			c0,0.146-0.038,0.255-0.109,0.327c-0.073,0.073-0.109,0.182-0.109,0.327v0.327c0,0.146-0.092,0.292-0.272,0.436
			c-0.182,0.146-0.272,0.4-0.272,0.763c0,0.365,0.036,0.673,0.109,0.927c0.071,0.255,0.109,0.455,0.109,0.6
			c-0.292,1.236-0.764,2.417-1.417,3.542c-0.654,1.127-1.091,2.381-1.309,3.761c0,0.436-0.092,0.763-0.272,0.981
			c-0.183,0.218-0.4,0.419-0.654,0.6c-0.255,0.182-0.474,0.382-0.654,0.6c-0.182,0.218-0.272,0.509-0.272,0.872
			c-0.364,0.801-0.891,1.526-1.58,2.18c-0.691,0.654-1.291,1.346-1.799,2.071c-0.218,0.583-0.509,1.073-0.872,1.471
			c-0.364,0.4-0.763,0.763-1.199,1.09c-0.436,0.327-0.891,0.654-1.362,0.981c-0.474,0.327-0.891,0.708-1.254,1.145
			c-0.509,0.146-0.926,0.364-1.253,0.654c-0.327,0.291-0.709,0.545-1.145,0.763c-0.437,0-0.764,0.183-0.981,0.545
			c-0.218,0.364-0.509,0.583-0.872,0.654c-0.364,0.509-0.836,0.817-1.417,0.927c-0.583,0.108-1.055,0.381-1.417,0.817
			c-0.583,0.364-1.291,0.582-2.126,0.654c-0.836,0.073-1.545,0.364-2.126,0.872c-0.582,0.436-1.345,0.637-2.289,0.599
			c-0.945-0.035-1.708,0.164-2.289,0.6c-0.146,0-0.272-0.017-0.381-0.054c-0.109-0.036-0.237-0.055-0.382-0.055
			c-0.583,0-1.055,0.108-1.417,0.327c-0.364,0.218-0.837,0.327-1.417,0.327c-0.364,0-0.618-0.036-0.764-0.109
			c-0.291,0.291-0.763,0.436-1.417,0.436c-0.653,0-1.272-0.073-1.853-0.218c-1.817,0.073-3.598,0.145-5.342,0.218
			c-1.744,0.072-3.452,0.254-5.123,0.545v-0.218h-0.327h-0.981c-0.436,0-0.727-0.073-0.872-0.218
			c-0.146,0.145-0.436,0.218-0.872,0.218h-0.763c-0.364,0-0.746,0.018-1.145,0.055c-0.4,0.036-0.782,0.055-1.145,0.055
			c-1.019,0-1.854-0.109-2.507-0.327c-0.146,0.145-0.4,0.218-0.764,0.218h-0.98c-0.437,0-0.892,0.018-1.363,0.055
			c-0.473,0.036-0.926,0.055-1.362,0.055c-0.801,0-1.563-0.019-2.289-0.055c-0.728-0.037-1.49-0.055-2.289-0.055
			c-0.583,0.145-1.128,0.218-1.635,0.218c-1.744,0-3.289-0.182-4.633-0.545c-1.346-0.362-2.017-1.234-2.017-2.616
			c0-0.58,0.09-1.125,0.272-1.635c0.18-0.508,0.272-0.981,0.272-1.417c0-0.581-0.02-1.145-0.055-1.689
			c-0.038-0.545-0.055-1.107-0.055-1.689v-3.597c0-0.726,0-1.434,0-2.126c0-0.689-0.037-1.398-0.109-2.125
			c0.072-0.218,0.109-0.507,0.109-0.872c0-0.363-0.037-0.744-0.109-1.145c-0.073-0.398-0.108-0.78-0.108-1.145
			c0-0.363,0.055-0.69,0.163-0.981c0.109-0.29,0.164-0.581,0.164-0.872c0-0.581-0.128-1.071-0.382-1.472
			c-0.256-0.398-0.382-0.889-0.382-1.472c0-0.218,0.072-0.453,0.219-0.708c0.145-0.254,0.218-0.417,0.218-0.491
			c0-0.145-0.055-0.398-0.164-0.763c-0.108-0.363-0.163-0.69-0.163-0.981c0-0.436,0.071-0.799,0.218-1.09
			c0.145-0.29,0.218-0.617,0.218-0.981c-0.364-0.145-0.545-0.581-0.545-1.308v-1.09c0-0.363-0.019-0.689-0.055-0.981
			c-0.037-0.29-0.054-0.654-0.054-1.09c0-0.944,0.108-1.489,0.327-1.635c0.218-0.145,0.326-0.29,0.326-0.436
			c-0.218-0.363-0.381-0.671-0.49-0.927c-0.109-0.253-0.163-0.635-0.163-1.145c0-0.507,0.108-0.962,0.327-1.362
			c0.218-0.399,0.326-0.745,0.326-1.036c-0.509-0.726-0.763-1.38-0.763-1.962c0-0.363,0.071-0.689,0.218-0.981
			c0.146-0.29,0.219-0.617,0.219-0.981c0-0.436-0.038-0.872-0.109-1.308c-0.073-0.436-0.109-0.872-0.109-1.308
			c0-0.29,0.072-0.654,0.219-1.09c-0.219-0.29-0.327-0.69-0.327-1.199c0-0.072,0.054-0.417,0.163-1.036
			c0.109-0.617,0.272-0.962,0.49-1.036c-0.146-0.363-0.291-0.763-0.436-1.199c-0.146-0.436-0.218-0.872-0.218-1.308
			c0-0.363,0.054-0.671,0.163-0.927c0.109-0.254,0.164-0.562,0.164-0.927c0-0.507-0.109-0.853-0.327-1.036
			c-0.219-0.18-0.327-0.453-0.327-0.817c0-0.363,0.017-0.708,0.055-1.036c0.035-0.327,0.054-0.671,0.054-1.036
			c-0.146-0.436-0.218-0.726-0.218-0.872c0-0.363,0.071-0.726,0.218-1.09c0.146-0.363,0.219-0.726,0.219-1.09
			c0-0.363-0.038-0.726-0.109-1.09c-0.073-0.363-0.109-0.763-0.109-1.199c0-0.363,0-0.689,0-0.981c0-0.29,0.036-0.545,0.109-0.763
			c-0.218-0.436-0.327-0.943-0.327-1.526c0-0.508,0.055-1.036,0.164-1.581c0.108-0.545,0.163-1.107,0.163-1.689
			c0.218-0.29,0.309-0.69,0.272-1.199c-0.037-0.508,0.018-0.944,0.164-1.308c0-0.363-0.055-0.744-0.164-1.145
			c-0.109-0.398-0.163-0.818-0.163-1.254c0-0.654,0.344-1.507,1.035-2.562c0.689-1.053,1.472-1.581,2.344-1.581
			c0.362,0,0.671,0.055,0.927,0.164C427.603,229.397,427.875,229.452,428.166,229.452z M431.654,296.818
			c-0.146,0-0.218,0.073-0.218,0.218c0,0.146,0.145,0.218,0.436,0.218l0.109-0.109L431.654,296.818z M438.304,286.68
			c0-0.29-0.109-0.453-0.327-0.49c-0.218-0.036-0.4-0.126-0.545-0.272c-0.218,0.146-0.6,0.272-1.145,0.381s-1.109,0.218-1.689,0.327
			c-0.583,0.109-1.091,0.218-1.526,0.327c-0.436,0.109-0.654,0.272-0.654,0.491c0,0.364,0.109,0.528,0.327,0.491
			c0.218-0.036,0.398,0.019,0.545,0.163c0.29-0.218,0.671-0.363,1.145-0.436c0.472-0.071,0.944-0.126,1.417-0.163
			c0.473-0.036,0.927-0.09,1.363-0.164C437.649,287.263,438.013,287.045,438.304,286.68z M434.488,240.461
			c-0.146-0.145-0.364-0.309-0.654-0.491c-0.291-0.181-0.509-0.272-0.653-0.272c-0.146,0-0.219,0.055-0.219,0.164
			s-0.037,0.201-0.108,0.272c0.071,0.146,0.327,0.365,0.763,0.654C434.124,240.788,434.415,240.679,434.488,240.461z
			 M434.379,292.894c-0.073-0.071-0.182-0.109-0.326-0.109h-0.654h-0.109v0.109c0,0.146,0.145,0.346,0.437,0.6
			c0.289,0.255,0.507,0.382,0.653,0.382c0.072,0,0.181-0.072,0.327-0.218c-0.073-0.145-0.092-0.308-0.054-0.491
			C434.688,292.986,434.598,292.894,434.379,292.894z M434.706,259.429c0-0.218-0.073-0.327-0.218-0.327l-0.109,0.109l-0.108,0.109
			C434.271,259.393,434.415,259.429,434.706,259.429z M439.176,248.637c-0.291-0.436-0.709-0.671-1.254-0.708
			c-0.545-0.036-1.108-0.054-1.689-0.054c-0.146,0.146-0.218,0.255-0.218,0.327c0,0.218,0.272,0.382,0.817,0.491
			s0.998,0.164,1.362,0.164C438.631,248.855,438.958,248.783,439.176,248.637z M438.304,241.006
			c-0.364-0.145-0.673-0.272-0.927-0.381c-0.255-0.109-0.563-0.164-0.927-0.164c-0.146,0.073-0.218,0.182-0.218,0.327
			c0,0.218,0.071,0.327,0.218,0.327c0.29,0,0.508,0.128,0.654,0.382c0.145,0.255,0.363,0.381,0.654,0.381
			c0.362,0,0.545-0.072,0.545-0.218C438.304,241.516,438.304,241.297,438.304,241.006z M437.322,299.652
			c0-0.146-0.092-0.29-0.272-0.437c-0.182-0.145-0.346-0.218-0.49-0.218c-0.146,0-0.256,0.037-0.327,0.108
			c0,0.365,0.071,0.619,0.218,0.764c0.146-0.071,0.309-0.091,0.491-0.055C437.122,299.853,437.249,299.799,437.322,299.652z
			 M438.413,291.477c-0.583-0.29-1.128-0.436-1.636-0.436h-0.327c0,0.218,0.072,0.365,0.219,0.436
			c0.145,0.073,0.253,0.182,0.326,0.327c0.29-0.145,0.581-0.181,0.872-0.109C438.157,291.768,438.34,291.695,438.413,291.477z
			 M437.867,295.292c-0.146-0.072-0.236-0.145-0.272-0.218c-0.037-0.071-0.092-0.109-0.163-0.109c0.071,0-0.019,0.055-0.272,0.164
			c-0.256,0.109-0.382,0.237-0.382,0.381c0,0.146,0.071,0.218,0.218,0.218C437.503,295.728,437.794,295.583,437.867,295.292z
			 M442.555,297.036c-0.509,0.073-1.108,0.201-1.799,0.381c-0.691,0.182-1.182,0.564-1.471,1.145c0,0.292,0.108,0.4,0.326,0.327
			c0.219-0.072,0.437-0.036,0.654,0.109c0.508-0.145,1.09-0.235,1.744-0.272c0.654-0.036,0.981-0.491,0.981-1.363
			c0-0.145-0.038-0.199-0.109-0.163C442.809,297.237,442.699,297.183,442.555,297.036z M439.938,264.007v-0.218
			c0-0.072-0.037-0.109-0.108-0.109h-0.109C439.721,263.898,439.792,264.007,439.938,264.007z M442.555,246.239
			c-0.654,0-1.127-0.218-1.417-0.654h-0.218h-0.327c-0.218,0-0.327,0.073-0.327,0.218c0.437,0.291,0.835,0.545,1.199,0.763
			c0.726,0.509,1.344,0.763,1.854,0.763c0.289,0,0.507-0.036,0.653-0.109c0-0.436-0.163-0.671-0.49-0.708
			C443.154,246.476,442.845,246.385,442.555,246.239z M444.626,290.932c-0.218-0.436-0.582-0.654-1.09-0.654
			c-0.364,0-0.746,0.073-1.145,0.218c-0.4,0.146-0.782,0.255-1.145,0.327c0.362,0.146,0.708,0.31,1.035,0.49
			c0.327,0.182,0.78,0.272,1.362,0.272c0.363,0,0.617-0.071,0.764-0.218h0.108c0.072,0,0.109-0.036,0.109-0.109V290.932z
			 M444.299,236.646c0-0.218-0.146-0.327-0.436-0.327h-0.437h-0.218c-0.073,0.146-0.163,0.218-0.272,0.218s-0.164,0.073-0.164,0.218
			c0,0.073,0.036,0.146,0.109,0.218h0.218c0.146,0,0.272,0.019,0.382,0.054c0.109,0.038,0.235,0.055,0.382,0.055
			C444.152,237.082,444.299,236.938,444.299,236.646z M445.171,242.968c-0.364-0.145-0.673-0.29-0.927-0.436
			c-0.255-0.145-0.563-0.218-0.926-0.218c-0.219,0-0.327,0.073-0.327,0.218c0,0.365,0.218,0.692,0.653,0.981
			c0.437,0.291,0.835,0.436,1.199,0.436c0.508,0,0.764-0.218,0.764-0.654c0-0.071-0.073-0.109-0.219-0.109
			C445.242,243.187,445.171,243.115,445.171,242.968z M448.986,298.562c-0.146-0.29-0.364-0.417-0.654-0.381
			c-0.291,0.037-0.545-0.017-0.763-0.164c-0.218,0.146-0.455,0.237-0.709,0.272c-0.255,0.038-0.527,0.128-0.817,0.272
			c0,0.365,0.071,0.618,0.218,0.763h0.546h0.763c0.362,0,0.654-0.091,0.872-0.272C448.659,298.872,448.84,298.708,448.986,298.562z
			 M455.091,250.054c-0.583,0.218-1.055,0.327-1.417,0.327c-0.583,0-1.145-0.09-1.689-0.272c-0.545-0.181-1.109-0.272-1.69-0.272
			c-0.364,0-0.926,0.182-1.689,0.545c-0.763,0.365-1.182,0.981-1.253,1.853c0.289,0.509,0.436,1.199,0.436,2.071
			c0,0.728-0.146,1.455-0.436,2.18c0.362,0.436,0.545,0.964,0.545,1.581c0,0.618,0,1.218,0,1.799c0,0.364-0.092,0.672-0.272,0.926
			c-0.183,0.255-0.272,0.673-0.272,1.254c0,1.019,0.035,2.054,0.108,3.106c0.072,1.054,0.109,2.09,0.109,3.107
			c0,0.509-0.037,1-0.109,1.471c-0.073,0.474-0.108,0.927-0.108,1.363c0,0.364,0.071,0.746,0.218,1.145
			c0.145,0.4,0.218,0.817,0.218,1.253c0,0.365-0.073,0.746-0.218,1.145c-0.146,0.4-0.218,0.782-0.218,1.145
			c0,0.583,0.071,1.163,0.218,1.744c0.145,0.583,0.218,1.199,0.218,1.853c0,0.654-0.163,1.145-0.49,1.472
			c-0.327,0.327-0.49,0.891-0.49,1.689c0,0.364,0.017,0.763,0.054,1.199c0.036,0.436,0.055,0.836,0.055,1.199
			c0,0.509-0.055,0.981-0.163,1.417c-0.109,0.436-0.164,0.872-0.164,1.308c0.581,0.292,0.872,0.782,0.872,1.472
			c0,0.692,0.181,1.254,0.545,1.69c0.29,0.291,0.617,0.436,0.981,0.436c0.362,0,0.763,0.073,1.199,0.218
			c0.218-0.071,0.654-0.109,1.308-0.109h1.091c0.362,0,0.653-0.036,0.872-0.109c0.218-0.072,0.472-0.109,0.763-0.109
			c0.289,0,0.545,0.038,0.763,0.109c0.219,0.073,0.437,0.109,0.654,0.109c0.363,0,0.654-0.145,0.872-0.436
			c0.943-0.29,1.854-0.526,2.726-0.708c0.872-0.181,1.706-0.562,2.507-1.145c0.726-0.508,1.562-0.908,2.507-1.199
			c0.943-0.29,1.815-0.726,2.616-1.308c0.29-0.872,0.744-1.598,1.362-2.18c0.617-0.581,1.217-1.235,1.799-1.962
			c0.363-0.363,0.581-0.854,0.654-1.472c0.071-0.617,0.29-1.145,0.654-1.581c0.362-0.508,0.49-1.199,0.381-2.071
			c-0.108-0.872,0.091-1.489,0.6-1.853c0.072-0.072,0.109-0.218,0.109-0.436c0-0.29-0.055-0.562-0.163-0.817
			c-0.109-0.254-0.164-0.491-0.164-0.709c0.071,0,0.109-0.071,0.109-0.218v-0.327c0.362-0.436,0.545-0.943,0.545-1.526
			c0-0.581-0.128-1.181-0.382-1.799c-0.255-0.617-0.382-1.253-0.382-1.908c0-0.218,0.036-0.453,0.109-0.708
			c0.071-0.253,0.109-0.49,0.109-0.708c0-0.799-0.201-1.489-0.6-2.071c-0.4-0.581-0.6-1.308-0.6-2.18
			c0-0.072,0.017-0.126,0.055-0.164c0.035-0.036,0.055-0.09,0.055-0.164c-0.292-0.145-0.474-0.382-0.546-0.708
			c-0.073-0.327-0.127-0.654-0.163-0.981c-0.037-0.327-0.109-0.636-0.218-0.927c-0.109-0.29-0.311-0.508-0.6-0.654
			c-0.291-0.29-0.583-0.616-0.872-0.981c-0.291-0.363-0.51-0.726-0.654-1.09c-0.801-0.654-1.653-1.271-2.562-1.853
			c-0.909-0.581-1.744-1.09-2.507-1.526c-0.764-0.436-1.4-0.78-1.908-1.036c-0.509-0.253-0.763-0.417-0.763-0.49
			c-1.236,0-2.254-0.181-3.053-0.545c-0.436,0-0.763-0.145-0.98-0.436C456.072,250.2,455.672,250.054,455.091,250.054z
			 M448.224,240.897c0-0.145-0.146-0.218-0.437-0.218c-0.146,0-0.218,0.038-0.218,0.109v0.109c0.071,0.073,0.145,0.109,0.218,0.109
			C448.077,241.006,448.224,240.971,448.224,240.897z M449.641,244.712c0-0.071-0.038-0.109-0.109-0.109
			c-0.073,0-0.109-0.036-0.109-0.109v-0.109c-0.291,0.146-0.672,0.272-1.145,0.381s-0.708,0.346-0.708,0.708
			c0,0.292,0.109,0.436,0.327,0.436c0.145,0,0.472-0.09,0.98-0.272C449.385,245.458,449.641,245.148,449.641,244.712z
			 M452.147,247.547c0-0.218-0.073-0.327-0.218-0.327l-0.218,0.218C451.712,247.511,451.856,247.547,452.147,247.547z
			 M455.636,245.148c0-0.218-0.073-0.327-0.218-0.327c-0.218,0-0.327,0.073-0.327,0.218c0,0.146,0.145,0.218,0.436,0.218h0.109
			V245.148z M457.815,299.106v-0.217c0-0.363-0.218-0.526-0.653-0.491c-0.437,0.038-0.728-0.017-0.872-0.164
			c0,0.146-0.109,0.218-0.327,0.218h-0.327c-0.073,0-0.109,0.038-0.109,0.109c0,0.146,0.199,0.31,0.6,0.491
			c0.398,0.182,0.744,0.272,1.036,0.272C457.307,299.325,457.524,299.253,457.815,299.106z M459.996,243.187v-0.109
			c0-0.218-0.092-0.327-0.272-0.327c-0.183,0-0.346,0-0.49,0c-0.073,0.146-0.109,0.364-0.109,0.654h0.109h0.326
			C459.778,243.404,459.923,243.333,459.996,243.187z M464.029,298.344c-0.218-0.145-0.436-0.327-0.654-0.545
			c-0.218-0.218-0.509-0.327-0.872-0.327c-0.364,0-0.545,0.109-0.545,0.327c0,0.365,0.164,0.637,0.49,0.818
			c0.327,0.182,0.6,0.272,0.818,0.272C463.773,298.889,464.029,298.708,464.029,298.344z M470.896,240.461v-0.218
			c0-0.071-0.037-0.109-0.108-0.109c-0.073,0-0.183,0.073-0.327,0.218c-0.073,0.073-0.146,0.109-0.218,0.109v0.109
			C470.532,240.57,470.75,240.535,470.896,240.461z M472.532,297.472c0.071-0.072,0.126-0.109,0.163-0.109
			c0.036,0,0.09-0.036,0.163-0.109c0.072,0,0.109-0.036,0.109-0.109c0-0.145-0.128-0.218-0.382-0.218c-0.255,0-0.454,0-0.6,0
			C471.986,297.292,472.167,297.472,472.532,297.472z M475.039,293.221c-0.073-0.29-0.327-0.436-0.763-0.436h-0.654h-0.218
			c0,0.218,0.071,0.346,0.218,0.381c0.145,0.038,0.254,0.128,0.327,0.273h0.218h0.436
			C474.821,293.439,474.966,293.367,475.039,293.221z M477.328,252.234v-0.218c0-0.145-0.073-0.218-0.218-0.218
			c-0.073,0-0.164,0.019-0.272,0.055c-0.109,0.038-0.201,0.055-0.272,0.055c-0.146,0-0.256-0.036-0.327-0.109
			c-0.146,0.218-0.437,0.327-0.872,0.327c-0.437,0-0.801,0.073-1.09,0.218h-0.219c-0.146,0-0.218,0.109-0.218,0.327v0.218h0.218
			h0.109c0.508,0,1.053-0.036,1.635-0.109C476.383,252.708,476.893,252.525,477.328,252.234z M480.926,257.902
			c-0.146,0-0.219-0.036-0.219-0.109c0-0.072-0.073-0.109-0.218-0.109h-0.109h-0.108c-0.073,0-0.109-0.072-0.109-0.218h-0.218
			h-0.654c-0.291,0-0.474,0.109-0.545,0.327c0.29,0.146,0.508,0.31,0.654,0.491c0.145,0.182,0.398,0.272,0.763,0.272
			c0.071,0,0.218-0.036,0.437-0.109c0.218-0.071,0.327-0.18,0.327-0.327V257.902z M481.252,269.239
			c-0.146-0.072-0.272-0.164-0.381-0.272c-0.109-0.109-0.272-0.164-0.491-0.164c-0.218,0-0.509,0.092-0.871,0.272
			c-0.365,0.182-0.546,0.419-0.546,0.708c0,0.218,0.109,0.327,0.327,0.327c0.146,0,0.272-0.017,0.382-0.055
			c0.109-0.036,0.235-0.054,0.382-0.054h0.326c0.146-0.145,0.327-0.254,0.546-0.327
			C481.144,269.604,481.252,269.457,481.252,269.239z M481.034,253.76c-0.146-0.436-0.509-0.654-1.09-0.654
			c-0.436,0-0.654,0.146-0.654,0.436c0,0.509,0.181,0.782,0.545,0.818c0.363,0.037,0.654,0.054,0.872,0.054
			c0.29,0,0.437-0.109,0.437-0.327c-0.073,0-0.109-0.036-0.109-0.109V253.76z M480.926,273.6v-0.218h-0.219h-0.872
			c-0.291,0-0.473,0.109-0.545,0.327c0,0.291,0.072,0.509,0.219,0.654c0.362,0,0.708-0.017,1.035-0.054
			c0.327-0.036,0.49-0.235,0.49-0.6L480.926,273.6z M482.016,284.173c-0.146-0.145-0.237-0.273-0.272-0.382
			c-0.038-0.109-0.128-0.164-0.272-0.164c0.071,0-0.019,0.038-0.272,0.109c-0.256,0.073-0.382,0.182-0.382,0.327
			c0,0.292,0.09,0.455,0.272,0.491c0.181,0.038,0.344,0.055,0.49,0.055C481.869,284.609,482.016,284.464,482.016,284.173z
			 M484.305,272.292c-0.073-0.145-0.218-0.218-0.437-0.218c-0.436,0-0.653,0.182-0.653,0.545c0.145,0,0.254,0.019,0.327,0.055
			c0.071,0.038,0.18,0.055,0.326,0.055C484.158,272.728,484.305,272.583,484.305,272.292z M490.191,278.287
			c-0.219-0.29-0.692-0.436-1.418-0.436c-0.291,0-0.509,0.073-0.653,0.218c0,0.291,0.163,0.474,0.49,0.545
			c0.327,0.073,0.563,0.109,0.709,0.109C489.755,278.723,490.045,278.578,490.191,278.287z"/>
	</g>
</g>
<g>
	<g>
		<path fill="#121B49" d="M344.916,378.082c-2.581,0-5.096-0.481-7.549-1.444c-2.453-0.962-4.66-2.426-6.622-4.388
			c-1.89-1.926-3.334-4.096-4.333-6.513c-1-2.416-1.499-4.969-1.499-7.658c0-2.726,0.499-5.295,1.499-7.712
			c0.999-2.416,2.443-4.569,4.333-6.459c1.962-1.962,4.178-3.434,6.649-4.415c2.47-0.98,4.987-1.472,7.549-1.472
			c2.562,0,5.068,0.491,7.521,1.472c2.453,0.981,4.66,2.453,6.622,4.415l-6.486,6.486c-1.055-1.054-2.253-1.844-3.598-2.371
			c-1.344-0.526-2.707-0.79-4.087-0.79c-1.381,0-2.735,0.264-4.061,0.79c-1.327,0.527-2.517,1.317-3.57,2.371
			c-1.018,1.054-1.798,2.234-2.343,3.542c-0.545,1.309-0.818,2.689-0.818,4.143c0,1.454,0.272,2.826,0.818,4.115
			c0.545,1.29,1.326,2.462,2.343,3.516c1.054,1.054,2.243,1.845,3.57,2.371c1.326,0.526,2.679,0.79,4.061,0.79
			c1.38,0,2.743-0.264,4.087-0.79s2.543-1.317,3.598-2.371l6.486,6.54c-1.962,1.962-4.161,3.426-6.595,4.388
			C350.057,377.601,347.532,378.082,344.916,378.082z"/>
		<path fill="#121B49" d="M379.063,338.076c2.757,0,5.352,0.527,7.783,1.581c2.432,1.054,4.555,2.479,6.369,4.278
			s3.247,3.916,4.3,6.35c1.053,2.435,1.579,5.033,1.579,7.794c0,2.762-0.526,5.36-1.579,7.794c-1.053,2.435-2.486,4.551-4.3,6.35
			s-3.937,3.226-6.369,4.278c-2.431,1.055-5.025,1.581-7.783,1.581c-2.758,0-5.353-0.526-7.784-1.581
			c-2.432-1.053-4.545-2.479-6.341-4.278s-3.22-3.915-4.272-6.35c-1.053-2.434-1.578-5.032-1.578-7.794
			c0-2.761,0.525-5.359,1.578-7.794c1.053-2.434,2.477-4.551,4.272-6.35s3.91-3.225,6.341-4.278
			C373.71,338.604,376.305,338.076,379.063,338.076z M379.09,368.871c1.489,0,2.889-0.281,4.197-0.845s2.453-1.336,3.434-2.316
			c0.981-0.981,1.752-2.126,2.316-3.434c0.563-1.309,0.845-2.707,0.845-4.197c0-1.489-0.282-2.889-0.845-4.196
			c-0.564-1.309-1.335-2.453-2.316-3.435c-0.981-0.98-2.125-1.752-3.434-2.316c-1.308-0.563-2.708-0.845-4.197-0.845
			c-1.49,0-2.889,0.282-4.197,0.845c-1.308,0.564-2.453,1.336-3.434,2.316c-0.981,0.981-1.753,2.126-2.316,3.435
			c-0.563,1.308-0.845,2.707-0.845,4.196c0,1.49,0.281,2.889,0.845,4.197c0.563,1.308,1.335,2.452,2.316,3.434
			c0.981,0.98,2.126,1.753,3.434,2.316S377.6,368.871,379.09,368.871z"/>
		<path fill="#121B49" d="M428.578,338.076h9.483l2.344,40.061h-9.211l-0.981-16.352l-5.559,16.352h-9.212l-5.886-17.005
			l-1.09,17.005h-9.266l2.562-40.061h9.483l8.775,25.072L428.578,338.076z"/>
		<path fill="#121B49" d="M468.91,354.973c0,2.289-0.427,4.441-1.28,6.458c-0.854,2.018-2.035,3.788-3.543,5.314
			s-3.262,2.734-5.26,3.625s-4.142,1.354-6.432,1.39v6.377h-9.211v-40.006h9.211c2.29,0.037,4.434,0.51,6.432,1.417
			c1.998,0.909,3.752,2.126,5.26,3.652c1.508,1.525,2.688,3.297,3.543,5.313C468.483,350.53,468.91,352.684,468.91,354.973z
			 M452.396,362.549c1.018-0.036,1.971-0.265,2.862-0.685c0.89-0.419,1.662-0.966,2.316-1.641c0.653-0.675,1.172-1.468,1.553-2.38
			c0.382-0.911,0.572-1.877,0.572-2.898c0-1.021-0.19-1.987-0.572-2.899c-0.381-0.911-0.899-1.704-1.553-2.379
			c-0.654-0.675-1.427-1.222-2.316-1.642c-0.892-0.419-1.845-0.646-2.862-0.684V362.549z"/>
		<path fill="#121B49" d="M489.566,378.137c-2.035,0-3.961-0.372-5.777-1.117c-1.817-0.745-3.434-1.808-4.851-3.188
			c-1.454-1.453-2.571-3.088-3.352-4.905c-0.782-1.817-1.191-3.761-1.227-5.832v-25.018h9.211v24.963c0,1.6,0.6,2.998,1.799,4.196
			c1.199,1.127,2.616,1.69,4.251,1.69c0.799,0,1.562-0.164,2.289-0.491c0.727-0.327,1.362-0.763,1.908-1.308
			c0.545-0.545,0.962-1.181,1.253-1.908c0.291-0.726,0.437-1.507,0.437-2.344v-24.799h9.211v24.745
			c0.036,2.071-0.337,4.033-1.117,5.886c-0.782,1.854-1.854,3.471-3.216,4.852s-2.962,2.479-4.797,3.297s-3.787,1.245-5.858,1.281
			H489.566z"/>
		<path fill="#121B49" d="M533.169,337.968v9.211h-7.685v30.958h-9.212v-30.958h-7.63v-9.211H533.169z"/>
		<path fill="#121B49" d="M559.984,378.137l-1.58-4.851h-12.591l-1.635,4.851h-9.756l13.625-40.006h8.721l12.918,40.006H559.984z
			 M548.975,364.074h6.486l-3.161-9.701L548.975,364.074z"/>
		<path fill="#121B49" d="M589.688,378.082c-2.58,0-5.096-0.481-7.549-1.444c-2.452-0.962-4.66-2.426-6.622-4.388
			c-1.89-1.926-3.334-4.096-4.333-6.513c-1-2.416-1.499-4.969-1.499-7.658c0-2.726,0.499-5.295,1.499-7.712
			c0.999-2.416,2.443-4.569,4.333-6.459c1.962-1.962,4.178-3.434,6.649-4.415c2.471-0.98,4.987-1.472,7.549-1.472
			s5.068,0.491,7.521,1.472c2.453,0.981,4.66,2.453,6.622,4.415l-6.485,6.486c-1.055-1.054-2.254-1.844-3.598-2.371
			c-1.345-0.526-2.707-0.79-4.088-0.79s-2.734,0.264-4.061,0.79c-1.327,0.527-2.517,1.317-3.57,2.371
			c-1.018,1.054-1.798,2.234-2.343,3.542c-0.546,1.309-0.818,2.689-0.818,4.143c0,1.454,0.272,2.826,0.818,4.115
			c0.545,1.29,1.325,2.462,2.343,3.516c1.054,1.054,2.243,1.845,3.57,2.371c1.326,0.526,2.68,0.79,4.061,0.79
			s2.743-0.264,4.088-0.79c1.344-0.526,2.543-1.317,3.598-2.371l6.485,6.54c-1.962,1.962-4.161,3.426-6.595,4.388
			C594.83,377.601,592.305,378.082,589.688,378.082z"/>
		<path fill="#121B49" d="M615.796,378.137h-9.211v-40.061h9.211V378.137z"/>
		<path fill="#121B49" d="M638.551,338.076c2.758,0,5.352,0.527,7.783,1.581c2.431,1.054,4.554,2.489,6.368,4.306
			c1.813,1.817,3.247,3.942,4.3,6.377s1.579,5.033,1.579,7.794c0,2.762-0.526,5.36-1.579,7.794c-1.053,2.435-2.486,4.551-4.3,6.35
			c-1.814,1.799-3.938,3.225-6.368,4.278c-2.432,1.055-5.025,1.581-7.783,1.581s-5.353-0.526-7.784-1.581
			c-2.431-1.054-4.545-2.479-6.341-4.278s-3.22-3.915-4.272-6.35c-1.053-2.434-1.578-5.032-1.578-7.794
			c0-2.761,0.525-5.359,1.578-7.794s2.477-4.56,4.272-6.377c1.796-1.816,3.91-3.252,6.341-4.306
			C633.198,338.604,635.793,338.076,638.551,338.076z M638.578,368.926c1.489,0,2.889-0.282,4.196-0.847
			c1.309-0.564,2.453-1.339,3.435-2.322c0.98-0.984,1.752-2.131,2.316-3.442c0.563-1.312,0.845-2.714,0.845-4.208
			s-0.282-2.896-0.845-4.207c-0.564-1.312-1.336-2.459-2.316-3.442c-0.981-0.983-2.126-1.758-3.435-2.322
			c-1.308-0.564-2.707-0.848-4.196-0.848c-1.49,0-2.889,0.283-4.197,0.848c-1.308,0.564-2.452,1.339-3.434,2.322
			c-0.98,0.983-1.753,2.131-2.316,3.442s-0.845,2.713-0.845,4.207s0.281,2.896,0.845,4.208s1.336,2.458,2.316,3.442
			c0.981,0.983,2.126,1.758,3.434,2.322C635.689,368.644,637.088,368.926,638.578,368.926z M638.823,325.595h8.218l-4.408,9.212
			h-8.272L638.823,325.595z"/>
		<path fill="#121B49" d="M684.415,338.131h9.211v40.006h-9.974l-13.081-23.328v23.328h-9.211V338.24h10.028l13.026,23.272V338.131z
			"/>
	</g>
</g>
</svg>
