<svg width="157" height="156" viewBox="0 0 157 156" fill="none" xmlns="http://www.w3.org/2000/svg">
<path d="M104.632 13H52.6318C49.184 13 45.8774 14.3696 43.4394 16.8076C41.0015 19.2456 39.6318 22.5522 39.6318 26V130C39.6318 133.448 41.0015 136.754 43.4394 139.192C45.8774 141.63 49.184 143 52.6318 143H104.632C108.08 143 111.386 141.63 113.824 139.192C116.262 136.754 117.632 133.448 117.632 130V26C117.632 22.5522 116.262 19.2456 113.824 16.8076C111.386 14.3696 108.08 13 104.632 13ZM85.1318 136.5H72.1318V130H85.1318V136.5ZM104.632 123.5H52.6318V32.5H104.632V123.5Z" fill="white"/>
</svg>
