<svg width="410" height="128" viewBox="0 0 410 128" fill="none" xmlns="http://www.w3.org/2000/svg">
<path d="M84.2778 97.2061C80.7928 91.1839 77.4005 85.323 74.0081 79.461C73.0375 77.7834 71.8555 76.1907 71.1452 74.4095C70.07 71.71 68.3161 71.0488 65.4869 71.0804C51.3085 71.2405 37.128 71.1534 22.9485 71.1534C22.2176 71.1534 21.4877 71.1534 20.4735 71.1534C20.8896 71.9661 21.1554 72.55 21.4746 73.1023C28.5545 85.3688 35.6475 97.6276 42.6937 109.914C42.9998 110.449 43.173 111.393 42.9094 111.869C40.4169 116.36 37.8154 120.789 35.1192 125.456C31.034 118.374 27.0675 111.493 23.0956 104.615C15.6039 91.6404 8.12525 78.6582 0.58669 65.7108C-0.132305 64.4754 -0.233618 63.5908 0.524595 62.2858C12.1287 42.3042 23.6871 22.2954 35.1824 2.24963C36.1062 0.636252 37.0496 -0.00648701 38.968 4.93105e-05C61.954 0.0773958 84.9401 0.0719489 107.925 0.00658563C109.645 0.00222808 110.426 0.666754 111.437 1.97402C114.222 5.57444 113.907 8.52668 111.533 12.4822C101.677 28.9069 92.2869 45.6105 82.6589 62.1725C81.8702 63.5287 81.8876 64.4743 82.6774 65.7979C85.8487 71.1098 88.9284 76.4772 91.9405 81.8817C92.3262 82.5734 92.4852 83.8131 92.1224 84.4341C89.6441 88.6772 86.998 92.8235 84.2778 97.2061ZM20.3351 56.8149C36.5049 56.8149 52.2378 56.8345 67.9696 56.7495C68.6799 56.7451 69.6484 55.9423 70.0536 55.2527C75.5202 45.933 80.9126 36.5697 86.3127 27.2108C88.7159 23.0449 91.0951 18.8661 93.5441 14.5902C93.0844 14.4845 92.8817 14.3974 92.678 14.3974C77.1608 14.3898 61.6447 14.3702 46.1285 14.4508C45.4117 14.454 44.4269 15.2101 44.0271 15.8877C39.8929 22.8783 35.8491 29.9222 31.7878 36.9564C28.0316 43.4568 24.2852 49.9637 20.3351 56.8149Z" fill="#121B49"/>
<path d="M117.134 12.0176C120.268 17.4558 123.268 22.6707 126.278 27.8801C132.951 39.4298 139.608 50.9893 146.335 62.5074C147.017 63.6741 146.839 64.4748 146.224 65.5381C134.501 85.7876 122.82 106.062 111.073 126.296C110.681 126.971 109.666 127.699 108.938 127.702C85.9611 127.774 62.9837 127.757 40.0064 127.75C39.8745 127.75 39.7427 127.661 39.4039 127.541C41.9814 123.078 44.4914 118.623 47.1582 114.263C47.4861 113.726 48.6561 113.479 49.4361 113.477C66.1473 113.433 82.8574 113.414 99.5686 113.485C101.367 113.493 102.308 112.932 103.207 111.359C111.897 96.1564 120.669 80.9997 129.478 65.8671C130.294 64.465 130.29 63.4606 129.458 62.0401C122.793 50.6603 116.216 39.2294 109.67 27.7799C109.303 27.1372 109.116 26.001 109.435 25.4192C111.867 20.9941 114.446 16.6518 117.134 12.0176Z" fill="#121B49"/>
<path d="M192.791 19.721C193.261 19.8267 193.771 19.8518 194.32 19.7995C194.869 19.7483 195.352 19.8518 195.771 20.1132C195.823 20.1132 196.007 20.1655 196.32 20.2701C196.634 20.3757 197.013 20.5054 197.458 20.6623C197.901 20.8191 198.321 21.0032 198.713 21.2113C199.105 21.4205 199.406 21.6819 199.615 21.9957C199.823 21.9957 200.071 22.1133 200.36 22.3486C200.646 22.5839 200.921 22.8323 201.183 23.0938C201.445 23.3563 201.666 23.5916 201.85 23.7997C202.033 24.0089 202.125 24.0622 202.125 23.9577C202.909 24.5328 203.537 25.2518 204.007 26.1136C204.478 26.9763 205 27.7738 205.576 28.5058V28.7412C205.576 29.2118 205.694 29.6039 205.929 29.9177C206.164 30.2314 206.282 30.6225 206.282 31.0942C206.282 31.3557 206.255 31.5387 206.203 31.6433C206.465 32.2708 206.596 32.846 206.596 33.3689C206.596 33.7883 206.568 34.2186 206.517 34.6631C206.465 35.1086 206.439 35.54 206.439 35.9572C206.439 36.2187 206.439 36.4409 206.439 36.624C206.439 36.807 206.49 37.0292 206.596 37.2896C206.333 37.5521 206.164 37.8125 206.086 38.075C206.007 38.3365 205.941 38.5968 205.89 38.8594C205.837 39.1208 205.772 39.3572 205.694 39.5642C205.615 39.7734 205.444 39.9313 205.184 40.0359C205.078 40.2974 205.027 40.5719 205.027 40.8595C205.027 41.1482 204.921 41.3955 204.713 41.6046C204.556 41.8138 204.385 41.9576 204.203 42.036C204.02 42.1145 203.929 42.3106 203.929 42.6243C203.615 43.3041 203.091 43.8401 202.36 44.2322C201.627 44.6244 201.131 45.1876 200.87 45.9186C201.078 46.4949 201.431 46.8598 201.929 47.0178C202.425 47.1747 202.882 47.4623 203.301 47.8806C203.666 47.9863 203.929 48.1813 204.086 48.4689C204.242 48.7565 204.478 48.9525 204.792 49.056C205.262 49.4755 205.654 49.9188 205.968 50.3905C206.282 50.8612 206.568 51.3841 206.831 51.9582C207.51 53.0051 208.047 54.1947 208.439 55.527C208.831 56.8604 209.027 58.757 209.027 61.2136C209.027 62.0513 208.961 62.7311 208.831 63.2529C208.7 63.7758 208.568 64.2083 208.439 64.5471C208.307 64.8881 208.176 65.1746 208.047 65.4099C207.916 65.6452 207.851 65.9198 207.851 66.2335C207.851 66.3904 207.902 66.5745 208.007 66.7825C207.955 67.3054 207.745 67.6987 207.38 67.9591C207.014 68.2205 206.831 68.6389 206.831 69.2141C206.779 69.5267 206.635 69.7892 206.399 69.9984C206.164 70.2076 205.941 70.3895 205.733 70.5475C205.47 70.8612 205.313 71.2272 205.262 71.6456C205.21 72.065 204.973 72.3515 204.556 72.5084C204.033 72.7175 203.641 73.0716 203.38 73.5672C203.117 74.0651 202.699 74.3919 202.125 74.5477C201.183 75.4889 200.033 76.3648 198.674 77.1753C197.313 77.9847 195.876 78.4422 194.36 78.5479C193.889 78.6002 193.458 78.7451 193.065 78.9793C192.673 79.2146 192.242 79.3312 191.771 79.3312C191.509 79.3312 191.222 79.2538 190.908 79.0959C190.332 79.4619 189.693 79.658 188.987 79.6842C188.281 79.7092 187.536 79.7234 186.751 79.7234C185.705 79.7234 184.869 79.6177 184.241 79.4096C184.032 79.5142 183.822 79.5676 183.614 79.5676C183.405 79.5676 183.222 79.5404 183.065 79.4892C182.908 79.4358 182.724 79.4107 182.516 79.4107H181.81C181.39 79.4107 181.155 79.28 181.104 79.0196C180.633 78.7059 180.045 78.5741 179.339 78.6274C178.633 78.6786 178.07 78.5218 177.653 78.1568C177.39 78.0501 177.076 77.9596 176.711 77.8823C176.345 77.8039 176.006 77.7113 175.692 77.6067C175.272 77.3997 174.894 77.1361 174.554 76.8223C174.214 76.5086 173.782 76.3005 173.26 76.1948C172.737 76.038 172.28 75.7634 171.888 75.3713C171.495 74.9802 171.103 74.5619 170.711 74.1174C170.319 73.674 169.927 73.2415 169.535 72.8232C169.142 72.4049 168.684 72.0661 168.162 71.8035C168.11 71.3318 167.979 70.9407 167.77 70.627C167.561 70.3132 167.324 69.9995 167.064 69.6858C166.801 69.372 166.566 69.0463 166.358 68.7053C166.149 68.3654 166.017 67.9351 165.966 67.4111C165.652 66.9928 165.482 66.5091 165.456 65.9601C165.429 65.411 165.26 64.9284 164.946 64.509C164.946 64.0907 164.868 63.7628 164.711 63.5285C164.554 63.2943 164.475 62.9937 164.475 62.6265V62.3128C164.37 61.791 164.319 61.4249 164.319 61.2147C164.319 60.17 164.58 59.2679 165.103 58.5097C165.625 57.7526 166.436 57.3201 167.534 57.2155C167.899 57.2689 168.253 57.3212 168.593 57.3735C168.933 57.4258 169.286 57.4509 169.652 57.4509C170.383 57.4509 171.155 57.4258 171.966 57.3735C172.777 57.3212 173.6 57.2951 174.437 57.2951C175.378 57.2951 176.41 57.2951 177.535 57.2951C178.659 57.2951 179.457 57.5304 179.927 57.9999C180.031 58.5762 180.202 59.0719 180.437 59.4902C180.672 59.9096 180.79 60.4587 180.79 61.1384V61.6875C180.947 61.8443 181.037 62.0677 181.065 62.3531C181.09 62.6418 181.207 62.8368 181.418 62.9414C181.993 63.8314 182.712 64.6158 183.575 65.2944C184.437 65.9753 185.549 66.3152 186.908 66.3152C187.64 66.3152 188.228 66.2368 188.673 66.0788C189.116 65.9219 189.497 65.7389 189.81 65.5297C190.124 65.3228 190.424 65.1125 190.712 64.9034C190.999 64.6953 191.352 64.5112 191.771 64.3532C191.876 64.2497 191.993 64.0787 192.124 63.8434C192.254 63.6081 192.399 63.3608 192.556 63.0982C192.712 62.8357 192.842 62.6015 192.948 62.3923C193.052 62.1842 193.156 62.0786 193.261 62.0786C193.313 61.7136 193.34 61.3999 193.34 61.1384C193.34 60.877 193.391 60.5883 193.497 60.2756L193.418 60.1972C193.418 60.0926 193.458 60.0283 193.536 60.0011C193.614 59.975 193.654 59.9347 193.654 59.8835C193.654 59.8323 193.641 59.805 193.614 59.805C193.587 59.805 193.575 59.78 193.575 59.7266C193.366 59.1002 193.261 58.4204 193.261 57.6883C193.261 56.9563 193.026 56.3538 192.556 55.8843C192.242 55.5706 192.018 55.1664 191.889 54.6686C191.757 54.1718 191.379 53.9234 190.751 53.9234C190.124 53.9234 189.601 53.7655 189.183 53.4517C188.763 53.138 188.189 53.0083 187.457 53.0606H186.673C186.045 53.0606 185.575 52.9953 185.261 52.8634C184.947 52.7338 184.712 52.5639 184.555 52.3536C184.398 52.1455 184.254 51.9353 184.124 51.7261C183.993 51.5181 183.797 51.335 183.535 51.1771C183.117 50.7588 182.908 50.1574 182.908 49.373C182.908 48.9558 182.933 48.5636 182.986 48.1965C183.038 47.8316 183.065 47.4405 183.065 47.0211V46.4709C183.116 46.3674 183.143 46.2356 183.143 46.0798C183.143 45.9219 183.117 45.7803 183.065 45.6484C183.012 45.5188 182.986 45.4011 182.986 45.2966C182.986 44.4599 183.143 43.8455 183.457 43.4533C183.771 43.0611 184.163 42.7746 184.633 42.5905C185.104 42.4075 185.614 42.2909 186.163 42.2376C186.712 42.1864 187.248 42.0807 187.771 41.9238C188.085 41.767 188.489 41.5709 188.987 41.3356C189.483 41.1002 189.954 40.8257 190.399 40.512C190.842 40.1982 191.222 39.8583 191.536 39.4923C191.85 39.1263 192.006 38.7069 192.006 38.2373C192.006 38.1328 191.992 38.0293 191.967 37.9236C191.94 37.819 191.928 37.7155 191.928 37.6098C191.928 37.4018 191.967 37.1915 192.046 36.9824C192.124 36.7754 192.163 36.5913 192.163 36.4333C192.163 35.9627 192.046 35.5455 191.81 35.1794C191.575 34.8134 191.404 34.394 191.301 33.9245C190.935 33.0366 190.188 32.3296 189.065 31.8067C187.94 31.2849 186.959 31.0223 186.124 31.0223C185.967 31.0223 185.678 31.0888 185.261 31.2184C184.842 31.3502 184.41 31.5202 183.967 31.7293C183.522 31.9385 183.104 32.2 182.712 32.5137C182.32 32.8274 182.071 33.1684 181.967 33.5334C181.601 33.9528 181.326 34.4354 181.143 34.9844C180.959 35.5335 180.712 36.0444 180.398 36.5139C179.143 37.0368 177.743 37.3375 176.202 37.4159C174.659 37.4944 173.286 37.5325 172.084 37.5325C171.664 37.5325 171.155 37.5205 170.554 37.4944C169.952 37.4682 169.338 37.4159 168.711 37.3364C168.084 37.258 167.534 37.1403 167.064 36.9835C166.593 36.8266 166.306 36.6185 166.201 36.3571C166.201 35.9387 166.11 35.5607 165.927 35.2186C165.742 34.8788 165.652 34.5007 165.652 34.0813C165.652 33.3503 165.77 32.6183 166.005 31.8851C166.24 31.1531 166.527 30.4602 166.868 29.8066C167.208 29.1529 167.548 28.5788 167.887 28.081C168.227 27.5853 168.501 27.2324 168.711 27.0221C168.972 26.3434 169.299 25.8063 169.691 25.4131C170.084 25.022 170.488 24.6679 170.907 24.3542C171.326 24.0404 171.757 23.7409 172.201 23.4522C172.645 23.1657 173.076 22.8127 173.496 22.3933C174.488 21.975 175.417 21.5566 176.28 21.1383C177.143 20.72 178.096 20.3028 179.143 19.8844C180.031 19.7799 180.934 19.6764 181.849 19.5707C182.763 19.4661 183.692 19.4127 184.633 19.4127C185.052 19.4127 185.469 19.44 185.888 19.4912C186.307 19.5445 186.724 19.5696 187.143 19.5696C187.352 19.5696 187.523 19.5304 187.653 19.4519C187.783 19.3735 187.953 19.3081 188.163 19.2559C188.371 19.3081 188.712 19.3343 189.183 19.3343C189.444 19.3343 189.719 19.3212 190.006 19.2951C190.293 19.2689 190.567 19.2559 190.83 19.2559C191.195 19.2559 191.548 19.282 191.889 19.3343C192.229 19.3811 192.528 19.5119 192.791 19.721ZM180.084 65.5276V65.3707C180.084 65.2661 180.006 65.2127 179.849 65.2127C179.797 65.2127 179.731 65.2269 179.653 65.252C179.574 65.2792 179.483 65.2912 179.378 65.2912C179.273 65.2912 179.221 65.2661 179.221 65.2127C179.221 65.3195 179.169 65.3838 179.065 65.4099C178.959 65.4361 178.908 65.5014 178.908 65.606C178.959 65.6594 179.011 65.6844 179.065 65.6844C179.221 65.6321 179.404 65.6191 179.614 65.6452C179.822 65.6714 179.979 65.6321 180.084 65.5276ZM187.457 70.7032V70.6259C187.457 70.5213 187.418 70.4821 187.34 70.5082C187.261 70.5344 187.17 70.5224 187.065 70.469C187.065 70.5224 187.052 70.5475 187.026 70.5475C187 70.5475 186.987 70.5736 186.987 70.6259C186.987 70.6782 187.038 70.7032 187.143 70.7032H187.379H187.457ZM194.046 64.9785C194.203 64.9273 194.281 64.8489 194.281 64.7432C194.281 64.6386 194.149 64.5863 193.889 64.5863C193.47 64.5863 193.183 64.6637 193.026 64.8216C193.183 64.9785 193.34 65.057 193.497 65.057C193.601 65.057 193.693 65.0439 193.771 65.0177C193.85 64.9916 193.94 64.9785 194.046 64.9785ZM193.967 46.9383V46.7803C193.967 46.6234 193.889 46.545 193.732 46.545C193.626 46.545 193.523 46.5722 193.418 46.6234C193.313 46.6757 193.234 46.7019 193.183 46.7019C193.183 46.8587 193.234 46.9372 193.34 46.9372C193.444 46.9372 193.497 46.9895 193.497 47.0941H193.654V47.0167C193.654 46.9644 193.705 46.9383 193.81 46.9383H193.967ZM193.81 70.2337V70.1553C193.81 70.1041 193.758 70.0779 193.654 70.0779H193.261H193.183C193.183 70.2348 193.234 70.3132 193.34 70.3132C193.444 70.3132 193.523 70.3002 193.575 70.274C193.627 70.2479 193.705 70.2337 193.81 70.2337ZM196.556 48.4286V48.2706C196.556 48.1137 196.477 48.0353 196.32 48.0353C196.164 48.0353 196.007 48.0887 195.85 48.1922C195.693 48.2989 195.615 48.4547 195.615 48.6639V48.7423C195.979 48.7423 196.293 48.6388 196.556 48.4286ZM197.889 60.1155C197.627 59.9074 197.352 59.7898 197.066 59.7625C196.777 59.7375 196.425 59.7233 196.007 59.7233C195.901 59.8301 195.85 59.9325 195.85 60.0371C195.85 60.1427 195.994 60.2462 196.281 60.3508C196.568 60.4565 196.817 60.56 197.026 60.6645C197.131 60.56 197.301 60.5207 197.536 60.548C197.772 60.5741 197.889 60.4292 197.889 60.1155ZM196.634 51.4876C196.634 51.383 196.556 51.3307 196.399 51.3307C196.293 51.3307 196.242 51.3568 196.242 51.408C196.242 51.4614 196.268 51.5137 196.32 51.566C196.529 51.566 196.634 51.5409 196.634 51.4876ZM196.948 43.2518V43.1733C196.948 43.0688 196.909 43.0295 196.83 43.0557C196.752 43.0829 196.685 43.0699 196.634 43.0165C196.582 43.0699 196.556 43.1483 196.556 43.2529L196.634 43.3302C196.685 43.3302 196.738 43.3182 196.791 43.291C196.842 43.2649 196.896 43.2518 196.948 43.2518ZM199.066 50.0757V49.9177C199.066 49.8665 199.026 49.8524 198.948 49.8796C198.87 49.9058 198.803 49.8927 198.752 49.8404V49.9177C198.752 50.0245 198.791 50.0626 198.87 50.0354C198.948 50.0103 199.013 50.0245 199.066 50.0757ZM200.164 54.3112H200.007L199.928 54.2339C199.876 54.2339 199.837 54.2208 199.811 54.1947C199.784 54.1685 199.744 54.1555 199.693 54.1555C199.588 54.1555 199.445 54.1816 199.262 54.2339C199.079 54.2862 198.987 54.4169 198.987 54.625C198.987 54.7829 199.038 54.8603 199.144 54.8603C199.249 54.8091 199.393 54.7949 199.576 54.8211C199.759 54.8483 199.901 54.7829 200.007 54.625C200.058 54.6784 200.112 54.7034 200.164 54.7034V54.625V54.3897V54.3112ZM202.203 59.8802C201.733 59.4096 201.235 59.1481 200.713 59.0958C200.556 59.1481 200.478 59.3311 200.478 59.6449C200.791 59.9586 201.053 60.1678 201.262 60.2724C201.365 60.3247 201.444 60.3247 201.497 60.2724C201.863 60.2724 202.099 60.1416 202.203 59.8802Z" fill="#121B49"/>
<path d="M218.987 19.4864C219.406 19.5398 219.837 19.5648 220.281 19.5648C220.725 19.5648 221.156 19.5648 221.576 19.5648C222.255 19.5648 222.909 19.5125 223.537 19.4069C224.164 19.3023 224.764 19.25 225.341 19.25C225.705 19.25 226.058 19.2892 226.399 19.3666C226.739 19.445 227.117 19.4842 227.537 19.4842C227.798 19.4842 228.007 19.4592 228.164 19.4058C228.372 19.5115 228.556 19.5757 228.713 19.603C228.87 19.6302 229.053 19.6411 229.262 19.6411C229.576 19.6411 229.876 19.6291 230.164 19.603C230.451 19.5768 230.753 19.5637 231.066 19.5637C231.588 19.5637 232.098 19.5899 232.596 19.6411C233.093 19.6945 233.628 19.7195 234.204 19.7195C234.882 19.7195 235.563 19.7075 236.243 19.6803C236.922 19.6553 237.603 19.6411 238.282 19.6411C239.537 19.6411 240.688 19.7337 241.734 19.9167C242.778 20.0997 243.824 20.1912 244.871 20.1912C245.759 20.1912 246.53 20.335 247.185 20.6226C247.839 20.9113 248.609 21.054 249.499 21.054C250.387 21.3155 251.107 21.6804 251.656 22.1521C252.205 22.6227 252.844 22.9899 253.577 23.2502C253.891 23.3025 254.153 23.3951 254.362 23.5248C254.57 23.6555 254.78 23.7993 254.989 23.9562C255.303 24.2176 255.656 24.3875 256.048 24.466C256.44 24.5433 256.741 24.7405 256.95 25.0543C257.472 25.4737 257.982 25.8386 258.48 26.1524C258.976 26.4661 259.408 26.9106 259.774 27.4858C260.244 27.7995 260.702 28.1405 261.147 28.5065C261.59 28.8726 261.97 29.317 262.284 29.8399C262.492 30.1025 262.884 30.5459 263.46 31.1733C264.034 31.8008 264.323 32.4033 264.323 32.9774C264.741 33.6049 265.198 34.3772 265.696 35.2912C266.193 36.2074 266.441 36.848 266.441 37.214V37.6846C266.441 38.104 266.571 38.4036 266.833 38.5866C267.095 38.7707 267.225 38.9919 267.225 39.2522C267.225 39.4102 267.198 39.5148 267.147 39.566C267.147 39.9331 267.251 40.3384 267.461 40.7817C267.669 41.2262 267.774 41.7371 267.774 42.3112C267.774 42.5204 267.747 42.6773 267.696 42.7818C267.747 42.991 267.8 43.162 267.853 43.2917C267.904 43.4235 267.984 43.5934 268.088 43.8026C268.036 44.0641 268.022 44.3517 268.049 44.6654C268.074 44.9791 268.036 45.2406 267.931 45.4498C267.982 45.6589 268.074 45.8419 268.206 45.9988C268.335 46.1568 268.428 46.3125 268.48 46.4694C268.428 47.3072 268.389 48.17 268.363 49.0578C268.335 49.9478 268.323 50.6799 268.323 51.2551C268.323 51.5688 268.35 51.8826 268.402 52.1963C268.453 52.509 268.48 52.7977 268.48 53.0591C268.48 53.3206 268.414 53.569 268.284 53.8043C268.153 54.0396 268.088 54.288 268.088 54.5494C268.088 54.6551 268.1 54.7727 268.127 54.9024C268.152 55.0331 268.167 55.1518 268.167 55.2553C268.167 55.361 268.14 55.4394 268.088 55.4906C268.036 55.544 268.01 55.6214 268.01 55.7259V55.9623C268.01 56.068 267.943 56.1715 267.814 56.275C267.682 56.3818 267.617 56.5637 267.617 56.8251C267.617 57.0866 267.643 57.3088 267.696 57.4907C267.747 57.6749 267.774 57.8187 267.774 57.9221C267.565 58.8111 267.225 59.6608 266.755 60.4713C266.284 61.2829 265.97 62.1838 265.813 63.1773C265.813 63.49 265.747 63.7264 265.617 63.8822C265.486 64.0401 265.329 64.1829 265.147 64.3136C264.964 64.4443 264.806 64.5881 264.676 64.745C264.545 64.9029 264.48 65.1121 264.48 65.3725C264.217 65.9477 263.839 66.4706 263.343 66.9401C262.845 67.4118 262.413 67.9096 262.049 68.4304C261.892 68.8498 261.682 69.2027 261.421 69.4903C261.158 69.7779 260.872 70.0394 260.558 70.2747C260.244 70.51 259.918 70.7453 259.578 70.9795C259.237 71.2159 258.937 71.4905 258.676 71.8042C258.31 71.9099 258.009 72.0657 257.774 72.2748C257.538 72.484 257.264 72.667 256.95 72.8239C256.636 72.8239 256.401 72.9546 256.244 73.2161C256.087 73.4775 255.878 73.6355 255.617 73.6867C255.354 74.0538 255.015 74.2749 254.597 74.3534C254.178 74.4307 253.839 74.6279 253.577 74.9416C253.158 75.2031 252.648 75.3611 252.048 75.4123C251.447 75.4656 250.936 75.6748 250.518 76.0397C250.099 76.3535 249.55 76.4984 248.871 76.4711C248.19 76.4461 247.642 76.5888 247.224 76.9025C247.118 76.9025 247.028 76.8895 246.95 76.8633C246.871 76.8383 246.78 76.8241 246.675 76.8241C246.256 76.8241 245.917 76.9025 245.655 77.0594C245.393 77.2174 245.054 77.2958 244.636 77.2958C244.373 77.2958 244.191 77.2697 244.087 77.2174C243.878 77.4265 243.538 77.5311 243.067 77.5311C242.596 77.5311 242.152 77.4777 241.734 77.3732C240.425 77.4265 239.145 77.4777 237.89 77.5311C236.635 77.5823 235.406 77.713 234.204 77.9222V77.7653H233.968H233.263C232.949 77.7653 232.74 77.712 232.635 77.6074C232.529 77.712 232.321 77.7653 232.008 77.7653H231.459C231.196 77.7653 230.921 77.7773 230.635 77.8045C230.346 77.8296 230.072 77.8438 229.811 77.8438C229.078 77.8438 228.478 77.7653 228.007 77.6074C227.902 77.712 227.719 77.7653 227.458 77.7653H226.752C226.439 77.7653 226.112 77.7773 225.772 77.8045C225.431 77.8296 225.105 77.8438 224.791 77.8438C224.215 77.8438 223.666 77.8296 223.144 77.8045C222.621 77.7773 222.072 77.7653 221.497 77.7653C221.078 77.8699 220.686 77.9222 220.321 77.9222C219.066 77.9222 217.954 77.7915 216.987 77.5311C216.019 77.2697 215.536 76.6433 215.536 75.6476C215.536 75.2292 215.601 74.8382 215.732 74.471C215.862 74.1061 215.928 73.7662 215.928 73.4514C215.928 73.033 215.914 72.6278 215.889 72.2356C215.862 71.8434 215.85 71.4393 215.85 71.0198V68.4315C215.85 67.9097 215.85 67.3998 215.85 66.903C215.85 66.4063 215.823 65.8965 215.771 65.3736C215.823 65.2156 215.85 65.0086 215.85 64.7461C215.85 64.4857 215.823 64.2112 215.771 63.9225C215.719 63.6349 215.693 63.3604 215.693 63.0989C215.693 62.8375 215.732 62.6021 215.811 62.393C215.889 62.1849 215.928 61.9747 215.928 61.7655C215.928 61.3483 215.837 60.9953 215.654 60.7066C215.471 60.4201 215.379 60.0672 215.379 59.6477C215.379 59.4898 215.43 59.3209 215.536 59.1379C215.641 58.9549 215.693 58.8372 215.693 58.7849C215.693 58.6804 215.654 58.4973 215.575 58.2359C215.497 57.9744 215.458 57.7391 215.458 57.53C215.458 57.2162 215.509 56.9559 215.614 56.7456C215.719 56.5375 215.771 56.3022 215.771 56.0397C215.509 55.9351 215.379 55.6214 215.379 55.0995V54.3141C215.379 54.0537 215.366 53.8184 215.34 53.6093C215.313 53.4012 215.301 53.1376 215.301 52.8238C215.301 52.1451 215.379 51.754 215.536 51.6473C215.693 51.5438 215.771 51.4403 215.771 51.3346C215.614 51.0732 215.497 50.852 215.418 50.6679C215.34 50.4849 215.301 50.2104 215.301 49.8443C215.301 49.4783 215.379 49.1515 215.536 48.8639C215.693 48.5774 215.771 48.329 215.771 48.1188C215.405 47.5969 215.222 47.1263 215.222 46.7069C215.222 46.4455 215.274 46.2101 215.379 46.001C215.484 45.7929 215.536 45.5576 215.536 45.2962C215.536 44.9824 215.51 44.6687 215.458 44.3549C215.405 44.0412 215.379 43.7274 215.379 43.4137C215.379 43.2056 215.43 42.9431 215.536 42.6293C215.379 42.4213 215.301 42.1326 215.301 41.7665C215.301 41.7142 215.34 41.467 215.418 41.0203C215.497 40.5769 215.614 40.3275 215.771 40.2752C215.666 40.0148 215.562 39.7261 215.458 39.4124C215.352 39.0986 215.301 38.7849 215.301 38.4711C215.301 38.2108 215.34 37.9885 215.418 37.8044C215.497 37.6225 215.536 37.4003 215.536 37.1388C215.536 36.7739 215.458 36.5255 215.301 36.3926C215.144 36.263 215.065 36.0669 215.065 35.8043C215.065 35.544 215.077 35.2945 215.105 35.0592C215.131 34.8239 215.144 34.5766 215.144 34.314C215.038 34.0003 214.987 33.7922 214.987 33.6866C214.987 33.4251 215.038 33.1647 215.144 32.9011C215.248 32.6407 215.301 32.3793 215.301 32.1168C215.301 31.8564 215.274 31.5949 215.222 31.3324C215.17 31.072 215.144 30.7833 215.144 30.4696C215.144 30.2092 215.144 29.9728 215.144 29.7637C215.144 29.5567 215.169 29.3726 215.222 29.2146C215.065 28.9009 214.987 28.5359 214.987 28.1165C214.987 27.7516 215.026 27.3714 215.105 26.9792C215.183 26.587 215.222 26.1829 215.222 25.7634C215.379 25.5554 215.445 25.2678 215.418 24.9007C215.391 24.5357 215.43 24.222 215.536 23.9605C215.536 23.6991 215.497 23.4245 215.418 23.1358C215.34 22.8493 215.301 22.5476 215.301 22.2338C215.301 21.7632 215.548 21.1499 216.046 20.3917C216.543 19.6346 217.105 19.2544 217.732 19.2544C217.994 19.2544 218.215 19.2936 218.399 19.3709C218.582 19.4472 218.778 19.4864 218.987 19.4864ZM221.498 67.9598C221.393 67.9598 221.341 68.0121 221.341 68.1166C221.341 68.2223 221.446 68.2746 221.655 68.2746L221.734 68.1962L221.498 67.9598ZM226.283 60.6652C226.283 60.4571 226.204 60.3395 226.048 60.3123C225.891 60.2872 225.76 60.2218 225.655 60.1162C225.498 60.2218 225.224 60.3123 224.832 60.3907C224.44 60.4691 224.034 60.5487 223.616 60.626C223.197 60.7044 222.832 60.784 222.518 60.8624C222.204 60.9397 222.047 61.0585 222.047 61.2143C222.047 61.4768 222.126 61.5945 222.283 61.5672C222.44 61.5422 222.57 61.5814 222.675 61.6849C222.883 61.5269 223.157 61.4234 223.498 61.3711C223.838 61.3189 224.177 61.2807 224.518 61.2535C224.858 61.2284 225.185 61.1881 225.498 61.1369C225.812 61.0857 226.073 60.9278 226.283 60.6652ZM223.538 27.4084C223.432 27.3038 223.275 27.1862 223.067 27.0555C222.858 26.9258 222.701 26.8583 222.596 26.8583C222.491 26.8583 222.44 26.8975 222.44 26.9759C222.44 27.0544 222.413 27.1208 222.361 27.172C222.412 27.2777 222.596 27.4346 222.91 27.6437C223.275 27.6437 223.484 27.5653 223.538 27.4084ZM223.458 65.1361C223.406 65.0838 223.327 65.0576 223.223 65.0576H222.752H222.674V65.1361C222.674 65.2417 222.778 65.3855 222.987 65.5675C223.196 65.7516 223.352 65.842 223.458 65.842C223.509 65.842 223.589 65.7908 223.693 65.6851C223.641 65.5805 223.627 65.4629 223.654 65.3322C223.68 65.2025 223.615 65.1361 223.458 65.1361ZM223.694 41.0563C223.694 40.8994 223.642 40.821 223.538 40.821L223.459 40.8994L223.381 40.9767C223.381 41.0301 223.484 41.0563 223.694 41.0563ZM226.909 33.2911C226.7 32.9774 226.399 32.8085 226.007 32.7813C225.615 32.7562 225.21 32.7421 224.791 32.7421C224.686 32.8477 224.635 32.9262 224.635 32.9774C224.635 33.1353 224.831 33.2519 225.223 33.3303C225.615 33.4088 225.941 33.448 226.203 33.448C226.518 33.448 226.752 33.3957 226.909 33.2911ZM226.283 27.8006C226.02 27.696 225.799 27.6045 225.616 27.5261C225.433 27.4476 225.211 27.4095 224.949 27.4095C224.844 27.4618 224.793 27.5402 224.793 27.6448C224.793 27.8017 224.844 27.8801 224.949 27.8801C225.158 27.8801 225.314 27.9716 225.42 28.1546C225.525 28.3388 225.68 28.4292 225.891 28.4292C226.152 28.4292 226.283 28.378 226.283 28.2723C226.283 28.1677 226.283 28.0098 226.283 27.8006ZM225.577 69.9991C225.577 69.8945 225.51 69.791 225.381 69.6853C225.249 69.5808 225.131 69.5274 225.028 69.5274C224.922 69.5274 224.845 69.5546 224.793 69.6058C224.793 69.8684 224.844 70.0503 224.949 70.1549C225.054 70.1037 225.172 70.0895 225.302 70.1157C225.432 70.144 225.524 70.1048 225.577 69.9991ZM226.36 64.1164C225.941 63.9083 225.549 63.8027 225.184 63.8027H224.948C224.948 63.9606 225 64.0652 225.105 64.1164C225.21 64.1698 225.287 64.2482 225.341 64.3517C225.549 64.2482 225.759 64.2221 225.968 64.2744C226.177 64.3256 226.308 64.2733 226.36 64.1164ZM225.969 66.8617C225.863 66.8094 225.799 66.7571 225.773 66.7037C225.747 66.6525 225.707 66.6263 225.655 66.6263C225.707 66.6263 225.642 66.6645 225.459 66.7429C225.276 66.8213 225.185 66.9129 225.185 67.0174C225.185 67.1231 225.236 67.1754 225.342 67.1754C225.707 67.1754 225.916 67.0719 225.969 66.8617ZM229.342 68.1155C228.976 68.1689 228.544 68.2604 228.048 68.3901C227.55 68.5219 227.198 68.7964 226.989 69.2147C226.989 69.4239 227.067 69.5023 227.224 69.45C227.381 69.3978 227.538 69.425 227.695 69.5274C228.06 69.4239 228.479 69.3585 228.95 69.3313C229.42 69.3062 229.656 68.9783 229.656 68.3519C229.656 68.2474 229.629 68.2081 229.577 68.2343C229.524 68.2604 229.445 68.2212 229.342 68.1155ZM227.459 44.3506V44.1926C227.459 44.1414 227.432 44.1153 227.381 44.1153H227.303C227.303 44.2721 227.354 44.3506 227.459 44.3506ZM229.342 31.5655C228.871 31.5655 228.53 31.4086 228.322 31.0949H228.165H227.93C227.773 31.0949 227.695 31.1472 227.695 31.2518C228.008 31.4609 228.295 31.644 228.557 31.8008C229.079 32.168 229.525 32.3499 229.891 32.3499C230.099 32.3499 230.256 32.3248 230.362 32.2725C230.362 31.9588 230.244 31.7899 230.009 31.7616C229.773 31.7355 229.55 31.6701 229.342 31.5655ZM230.831 63.7242C230.674 63.4105 230.412 63.2525 230.047 63.2525C229.784 63.2525 229.51 63.3059 229.223 63.4105C228.936 63.5162 228.661 63.5935 228.4 63.6458C228.661 63.7515 228.909 63.8691 229.145 63.9988C229.38 64.1295 229.706 64.1948 230.125 64.1948C230.387 64.1948 230.568 64.1436 230.674 64.038H230.753C230.804 64.038 230.831 64.0118 230.831 63.9595V63.7242ZM230.597 24.6632C230.597 24.5063 230.491 24.4279 230.283 24.4279H229.969H229.812C229.76 24.5335 229.695 24.5847 229.616 24.5847C229.538 24.5847 229.499 24.6381 229.499 24.7427C229.499 24.795 229.525 24.8484 229.577 24.8996H229.734C229.839 24.8996 229.93 24.9137 230.009 24.9388C230.087 24.9649 230.177 24.978 230.283 24.978C230.491 24.9769 230.597 24.8723 230.597 24.6632ZM231.223 29.2124C230.961 29.1079 230.74 29.0044 230.557 28.8987C230.372 28.7941 230.15 28.7418 229.89 28.7418C229.733 28.7418 229.655 28.7941 229.655 28.8987C229.655 29.1612 229.811 29.3965 230.125 29.6046C230.439 29.8138 230.725 29.9184 230.988 29.9184C231.353 29.9184 231.537 29.7604 231.537 29.4467C231.537 29.3955 231.485 29.3693 231.38 29.3693C231.276 29.3693 231.223 29.317 231.223 29.2124ZM233.968 69.2147C233.863 69.0067 233.706 68.9141 233.498 68.9402C233.289 68.9664 233.106 68.9271 232.949 68.8225C232.792 68.9282 232.622 68.9925 232.439 69.0186C232.255 69.0459 232.059 69.1112 231.851 69.2158C231.851 69.4773 231.902 69.6603 232.008 69.7649H232.4H232.949C233.21 69.7649 233.419 69.6995 233.576 69.5677C233.734 69.437 233.864 69.3204 233.968 69.2147ZM238.362 34.3108C237.943 34.4676 237.604 34.5461 237.342 34.5461C236.923 34.5461 236.519 34.4807 236.127 34.3489C235.734 34.2193 235.329 34.1528 234.911 34.1528C234.648 34.1528 234.244 34.2835 233.695 34.545C233.146 34.8064 232.844 35.2498 232.793 35.8784C233.001 36.2455 233.107 36.7412 233.107 37.3687C233.107 37.8916 233.001 38.4156 232.793 38.9374C233.053 39.2501 233.185 39.6313 233.185 40.0747C233.185 40.5192 233.185 40.9506 233.185 41.3689C233.185 41.6315 233.119 41.8526 232.989 42.0356C232.858 42.2197 232.793 42.5193 232.793 42.9376C232.793 43.6708 232.818 44.4148 232.871 45.1731C232.923 45.9313 232.95 46.6764 232.95 47.4085C232.95 47.7756 232.924 48.1275 232.871 48.4684C232.819 48.8094 232.793 49.1341 232.793 49.4478C232.793 49.7103 232.844 49.9849 232.95 50.2714C233.054 50.5601 233.107 50.8597 233.107 51.1734C233.107 51.4359 233.054 51.7105 232.95 51.997C232.844 52.2857 232.793 52.5602 232.793 52.8205C232.793 53.24 232.844 53.6583 232.95 54.0755C233.054 54.4949 233.107 54.9383 233.107 55.4089C233.107 55.8806 232.989 56.2336 232.754 56.4689C232.519 56.7042 232.401 57.1095 232.401 57.6847C232.401 57.9461 232.413 58.2337 232.44 58.5475C232.465 58.8601 232.479 59.1488 232.479 59.4102C232.479 59.7763 232.44 60.1151 232.362 60.4299C232.283 60.7437 232.244 61.0574 232.244 61.3711C232.662 61.5803 232.871 61.9344 232.871 62.43C232.871 62.9279 233.001 63.332 233.264 63.6458C233.472 63.8549 233.707 63.9595 233.97 63.9595C234.231 63.9595 234.519 64.0118 234.832 64.1164C234.989 64.0652 235.303 64.0391 235.774 64.0391H236.558C236.819 64.0391 237.029 64.0129 237.185 63.9606C237.342 63.9083 237.525 63.8822 237.734 63.8822C237.943 63.8822 238.127 63.9083 238.284 63.9606C238.44 64.0129 238.597 64.0391 238.754 64.0391C239.016 64.0391 239.225 63.9345 239.382 63.7253C240.06 63.5172 240.715 63.3462 241.343 63.2144C241.97 63.0848 242.57 62.8102 243.147 62.3908C243.668 62.0259 244.271 61.7372 244.951 61.528C245.63 61.3199 246.257 61.0062 246.833 60.5868C247.041 59.9604 247.369 59.4375 247.813 59.0192C248.257 58.6008 248.688 58.1313 249.108 57.6073C249.369 57.3459 249.526 56.994 249.578 56.5473C249.63 56.104 249.786 55.7238 250.049 55.41C250.31 55.0451 250.402 54.5472 250.323 53.9208C250.245 53.2933 250.389 52.85 250.755 52.5863C250.806 52.5351 250.833 52.4295 250.833 52.2726C250.833 52.0645 250.794 51.8684 250.716 51.6843C250.637 51.5024 250.598 51.3324 250.598 51.1745C250.649 51.1745 250.676 51.1233 250.676 51.0176V50.7812C250.937 50.4686 251.069 50.1025 251.069 49.6831C251.069 49.2648 250.977 48.8345 250.794 48.3889C250.61 47.9455 250.52 47.4869 250.52 47.0163C250.52 46.8583 250.545 46.6895 250.598 46.5054C250.649 46.3234 250.676 46.1535 250.676 45.9955C250.676 45.4214 250.532 44.9247 250.245 44.5053C249.956 44.0869 249.814 43.5651 249.814 42.9376C249.814 42.8853 249.826 42.8461 249.853 42.82C249.879 42.7949 249.892 42.7546 249.892 42.7023C249.683 42.5988 249.551 42.4278 249.5 42.1925C249.448 41.9572 249.408 41.7219 249.382 41.4877C249.355 41.2523 249.304 41.0301 249.225 40.821C249.147 40.6129 249.002 40.456 248.794 40.3503C248.585 40.1423 248.375 39.907 248.166 39.6444C247.957 39.384 247.8 39.1226 247.696 38.8601C247.12 38.3884 246.506 37.945 245.853 37.5256C245.198 37.1083 244.598 36.7412 244.049 36.4275C243.5 36.1137 243.041 35.8664 242.676 35.6823C242.31 35.4993 242.127 35.3827 242.127 35.3294C241.237 35.3294 240.506 35.1997 239.931 34.9372C239.617 34.9372 239.382 34.8337 239.225 34.6245C239.068 34.4164 238.779 34.3108 238.362 34.3108ZM233.419 27.7211C233.419 27.6176 233.314 27.5642 233.106 27.5642C233 27.5642 232.949 27.5903 232.949 27.6426V27.72C233 27.7734 233.053 27.7984 233.106 27.7984C233.315 27.8006 233.419 27.7745 233.419 27.7211ZM234.439 30.4674C234.439 30.4162 234.412 30.389 234.361 30.389C234.308 30.389 234.282 30.3639 234.282 30.3105V30.2332C234.073 30.3389 233.799 30.4293 233.459 30.5077C233.118 30.5862 232.949 30.7572 232.949 31.0176C232.949 31.2267 233.027 31.3313 233.184 31.3313C233.289 31.3313 233.524 31.2659 233.89 31.1352C234.256 31.0045 234.439 30.7812 234.439 30.4674ZM236.244 32.5068C236.244 32.3488 236.192 32.2714 236.087 32.2714L235.93 32.4283C235.93 32.4817 236.034 32.5068 236.244 32.5068ZM238.753 30.7812C238.753 30.6232 238.701 30.5459 238.596 30.5459C238.439 30.5459 238.361 30.5981 238.361 30.7027C238.361 30.8084 238.465 30.8607 238.675 30.8607H238.753V30.7812ZM240.322 69.6069V69.45C240.322 69.1886 240.165 69.0709 239.851 69.0971C239.537 69.1232 239.328 69.084 239.224 68.9794C239.224 69.0851 239.145 69.1374 238.988 69.1374H238.753C238.701 69.1374 238.675 69.1635 238.675 69.2158C238.675 69.3215 238.817 69.4381 239.106 69.5677C239.393 69.6995 239.642 69.7649 239.851 69.7649C239.956 69.7638 240.113 69.7115 240.322 69.6069ZM241.891 29.3693V29.2909C241.891 29.134 241.824 29.0556 241.694 29.0556C241.563 29.0556 241.445 29.0556 241.341 29.0556C241.289 29.1612 241.263 29.317 241.263 29.5262H241.341H241.577C241.735 29.5262 241.838 29.475 241.891 29.3693ZM244.793 69.0579C244.636 68.9533 244.479 68.8226 244.322 68.6657C244.165 68.5088 243.956 68.4304 243.695 68.4304C243.432 68.4304 243.302 68.5088 243.302 68.6657C243.302 68.9282 243.42 69.1243 243.655 69.254C243.891 69.3858 244.087 69.4511 244.244 69.4511C244.61 69.45 244.793 69.3204 244.793 69.0579ZM249.735 27.4084V27.2505C249.735 27.1993 249.708 27.172 249.657 27.172C249.604 27.172 249.525 27.2254 249.421 27.33C249.369 27.3823 249.316 27.4084 249.265 27.4084V27.4858C249.473 27.4869 249.63 27.4607 249.735 27.4084ZM250.912 68.4304C250.963 68.3792 251.002 68.353 251.029 68.353C251.054 68.353 251.095 68.3269 251.147 68.2746C251.198 68.2746 251.225 68.2495 251.225 68.1962C251.225 68.0916 251.134 68.0393 250.951 68.0393C250.767 68.0393 250.623 68.0393 250.52 68.0393C250.52 68.2997 250.649 68.4304 250.912 68.4304ZM252.715 65.3714C252.662 65.1633 252.479 65.0576 252.166 65.0576H251.695H251.539C251.539 65.2145 251.59 65.3071 251.696 65.3322C251.801 65.3583 251.879 65.4237 251.931 65.5282H252.088H252.402C252.558 65.5282 252.662 65.477 252.715 65.3714ZM254.363 35.8795V35.7226C254.363 35.618 254.311 35.5647 254.206 35.5647C254.154 35.5647 254.088 35.5788 254.01 35.6039C253.931 35.63 253.866 35.6431 253.814 35.6431C253.708 35.6431 253.63 35.618 253.579 35.5647C253.473 35.7226 253.265 35.8 252.951 35.8C252.637 35.8 252.375 35.8533 252.167 35.9579H252.01C251.904 35.9579 251.853 36.0364 251.853 36.1932V36.3512H252.01H252.088C252.453 36.3512 252.845 36.3251 253.265 36.2728C253.682 36.2194 254.048 36.0887 254.363 35.8795ZM256.951 39.9582C256.846 39.9582 256.794 39.9331 256.794 39.8797C256.794 39.8285 256.742 39.8024 256.638 39.8024H256.559H256.481C256.428 39.8024 256.402 39.7501 256.402 39.6444H256.245H255.775C255.566 39.6444 255.434 39.7228 255.383 39.8797C255.591 39.9854 255.748 40.103 255.853 40.2327C255.957 40.3634 256.14 40.4288 256.402 40.4288C256.453 40.4288 256.559 40.4037 256.716 40.3514C256.873 40.2991 256.951 40.2218 256.951 40.115V39.9582ZM257.185 48.1155C257.08 48.0632 256.989 47.9978 256.911 47.9183C256.833 47.841 256.715 47.8017 256.558 47.8017C256.401 47.8017 256.192 47.8682 255.931 47.9978C255.668 48.1286 255.538 48.2996 255.538 48.5077C255.538 48.6656 255.617 48.7441 255.774 48.7441C255.878 48.7441 255.97 48.731 256.048 48.7048C256.127 48.6787 256.217 48.6656 256.323 48.6656H256.558C256.663 48.561 256.793 48.4826 256.95 48.4303C257.107 48.378 257.185 48.2724 257.185 48.1155ZM257.029 36.9776C256.923 36.6639 256.663 36.507 256.244 36.507C255.931 36.507 255.774 36.6126 255.774 36.8207C255.774 37.1868 255.903 37.3839 256.166 37.409C256.427 37.4351 256.636 37.4482 256.793 37.4482C257.001 37.4482 257.107 37.3698 257.107 37.2129C257.055 37.2129 257.029 37.1868 257.029 37.1345V36.9776ZM256.951 51.2529V51.095H256.794H256.167C255.958 51.095 255.826 51.1734 255.775 51.3314C255.775 51.5405 255.826 51.6974 255.932 51.802C256.193 51.802 256.441 51.7889 256.677 51.7628C256.912 51.7377 257.03 51.5939 257.03 51.3314L256.951 51.2529ZM257.736 58.8601C257.63 58.7566 257.565 58.664 257.54 58.5856C257.512 58.5082 257.448 58.469 257.343 58.469C257.395 58.469 257.33 58.4952 257.147 58.5475C256.963 58.5997 256.873 58.6782 256.873 58.7828C256.873 58.9919 256.938 59.1096 257.069 59.1357C257.199 59.1619 257.317 59.1739 257.422 59.1739C257.63 59.1739 257.736 59.0704 257.736 58.8601ZM259.382 50.3117C259.329 50.2071 259.225 50.1548 259.068 50.1548C258.754 50.1548 258.597 50.2855 258.597 50.5459C258.701 50.5459 258.779 50.5601 258.833 50.5851C258.884 50.6124 258.962 50.6243 259.068 50.6243C259.277 50.6254 259.382 50.5209 259.382 50.3117ZM263.618 54.6257C263.461 54.4176 263.12 54.3119 262.599 54.3119C262.39 54.3119 262.233 54.3653 262.128 54.4699C262.128 54.679 262.246 54.8109 262.481 54.861C262.716 54.9144 262.885 54.9394 262.991 54.9394C263.305 54.9394 263.513 54.8348 263.618 54.6257Z" fill="#121B49"/>
<path d="M159.086 126.434C157.23 126.434 155.419 126.088 153.654 125.394C151.889 124.703 150.301 123.649 148.889 122.238C147.53 120.854 146.49 119.291 145.771 117.552C145.051 115.813 144.693 113.977 144.693 112.041C144.693 110.08 145.052 108.231 145.771 106.491C146.49 104.753 147.53 103.204 148.889 101.844C150.301 100.432 151.896 99.3722 153.674 98.6674C155.452 97.9615 157.262 97.6074 159.105 97.6074C160.949 97.6074 162.753 97.9604 164.518 98.6674C166.282 99.3722 167.871 100.432 169.283 101.844L164.616 106.51C163.857 105.753 162.995 105.183 162.027 104.805C161.06 104.426 160.079 104.236 159.086 104.236C158.092 104.236 157.118 104.427 156.164 104.805C155.21 105.183 154.354 105.753 153.595 106.51C152.863 107.269 152.301 108.119 151.909 109.06C151.517 110 151.321 110.995 151.321 112.04C151.321 113.087 151.517 114.072 151.909 115.002C152.301 115.93 152.863 116.773 153.595 117.53C154.354 118.288 155.21 118.858 156.164 119.236C157.118 119.614 158.092 119.804 159.086 119.804C160.079 119.804 161.06 119.614 162.027 119.236C162.995 118.857 163.857 118.288 164.616 117.53L169.283 122.236C167.871 123.648 166.289 124.702 164.537 125.392C162.785 126.087 160.968 126.434 159.086 126.434Z" fill="#121B49"/>
<path d="M183.656 97.6465C185.639 97.6465 187.507 98.0267 189.256 98.7838C191.006 99.542 192.533 100.569 193.839 101.862C195.144 103.157 196.176 104.681 196.933 106.431C197.69 108.183 198.068 110.052 198.068 112.038C198.068 114.025 197.689 115.896 196.933 117.647C196.176 119.398 195.144 120.921 193.839 122.215C192.534 123.51 191.006 124.536 189.256 125.293C187.507 126.051 185.641 126.43 183.656 126.43C181.671 126.43 179.805 126.051 178.055 125.293C176.306 124.536 174.785 123.509 173.493 122.215C172.201 120.921 171.177 119.398 170.419 117.647C169.661 115.896 169.283 114.025 169.283 112.038C169.283 110.052 169.661 108.183 170.419 106.431C171.176 104.681 172.201 103.157 173.493 101.862C174.786 100.568 176.307 99.542 178.055 98.7838C179.805 98.0267 181.672 97.6465 183.656 97.6465ZM183.675 119.805C184.747 119.805 185.754 119.602 186.695 119.197C187.636 118.791 188.46 118.236 189.166 117.53C189.872 116.825 190.427 116.002 190.833 115.059C191.238 114.118 191.44 113.111 191.44 112.039C191.44 110.969 191.238 109.962 190.833 109.021C190.426 108.08 189.872 107.256 189.166 106.549C188.46 105.844 187.636 105.289 186.695 104.883C185.754 104.478 184.747 104.274 183.675 104.274C182.603 104.274 181.597 104.478 180.655 104.883C179.714 105.289 178.891 105.844 178.185 106.549C177.479 107.255 176.923 108.078 176.518 109.021C176.112 109.962 175.91 110.969 175.91 112.039C175.91 113.111 176.113 114.118 176.518 115.059C176.923 116 177.479 116.824 178.185 117.53C178.891 118.236 179.714 118.791 180.655 119.197C181.597 119.602 182.603 119.805 183.675 119.805Z" fill="#121B49"/>
<path d="M219.284 97.6465H226.108L227.794 126.472H221.167L220.461 114.706L216.46 126.472H209.833L205.597 114.237L204.813 126.472H198.146L199.989 97.6465H206.813L213.127 115.688L219.284 97.6465Z" fill="#121B49"/>
<path d="M248.307 109.804C248.307 111.451 247.999 113 247.385 114.451C246.771 115.902 245.921 117.177 244.836 118.276C243.751 119.374 242.489 120.243 241.051 120.884C239.613 121.526 238.071 121.859 236.424 121.884V126.473H229.796V97.6855H236.424C238.071 97.7117 239.613 98.0527 241.051 98.7063C242.489 99.3599 243.751 100.235 244.836 101.333C245.921 102.432 246.771 103.707 247.385 105.158C247.999 106.609 248.307 108.157 248.307 109.804ZM236.422 115.255C237.155 115.23 237.841 115.066 238.481 114.764C239.122 114.462 239.678 114.068 240.148 113.583C240.619 113.097 240.991 112.526 241.266 111.87C241.54 111.215 241.678 110.52 241.678 109.785C241.678 109.051 241.54 108.355 241.266 107.699C240.991 107.043 240.619 106.473 240.148 105.988C239.678 105.502 239.122 105.109 238.481 104.807C237.841 104.505 237.155 104.341 236.422 104.314V115.255Z" fill="#121B49"/>
<path d="M263.17 126.472C261.705 126.472 260.32 126.205 259.013 125.669C257.706 125.133 256.542 124.368 255.523 123.375C254.477 122.329 253.673 121.152 253.111 119.845C252.549 118.539 252.255 117.14 252.228 115.649V97.6466H258.856V115.608C258.856 116.76 259.288 117.764 260.15 118.627C261.013 119.438 262.033 119.843 263.209 119.843C263.785 119.843 264.334 119.726 264.857 119.49C265.378 119.255 265.837 118.941 266.229 118.55C266.621 118.158 266.922 117.7 267.131 117.176C267.34 116.654 267.445 116.092 267.445 115.49V97.6455H274.073V115.45C274.098 116.941 273.831 118.353 273.269 119.687C272.707 121.02 271.935 122.184 270.955 123.177C269.974 124.171 268.823 124.962 267.504 125.55C266.185 126.138 264.778 126.446 263.288 126.472H263.17Z" fill="#121B49"/>
<path d="M294.543 97.5684V104.196H289.014V126.472H282.386V104.196H276.895V97.5684H294.543Z" fill="#121B49"/>
<path d="M313.839 126.472L312.701 122.981H303.642L302.466 126.472H295.446L305.25 97.6855H311.525L320.82 126.472H313.839ZM305.917 116.353H310.584L308.309 109.374L305.917 116.353Z" fill="#121B49"/>
<path d="M335.211 126.434C333.355 126.434 331.545 126.088 329.78 125.394C328.015 124.703 326.427 123.649 325.015 122.238C323.655 120.854 322.616 119.291 321.897 117.552C321.177 115.813 320.818 113.977 320.818 112.041C320.818 110.08 321.178 108.231 321.897 106.491C322.616 104.753 323.655 103.204 325.015 101.844C326.427 100.432 328.021 99.3722 329.799 98.6674C331.577 97.9615 333.388 97.6074 335.231 97.6074C337.074 97.6074 338.878 97.9604 340.643 98.6674C342.408 99.3722 343.996 100.432 345.408 101.844L340.741 106.51C339.983 105.753 339.12 105.183 338.153 104.805C337.185 104.426 336.205 104.236 335.211 104.236C334.218 104.236 333.244 104.427 332.29 104.805C331.335 105.183 330.479 105.753 329.721 106.51C328.989 107.269 328.427 108.119 328.035 109.06C327.642 110 327.446 110.995 327.446 112.04C327.446 113.087 327.642 114.072 328.035 115.002C328.427 115.93 328.989 116.773 329.721 117.53C330.479 118.288 331.335 118.858 332.29 119.236C333.244 119.614 334.218 119.804 335.211 119.804C336.205 119.804 337.185 119.614 338.153 119.236C339.12 118.857 339.983 118.288 340.741 117.53L345.408 122.236C343.996 123.648 342.414 124.702 340.663 125.392C338.911 126.087 337.094 126.434 335.211 126.434Z" fill="#121B49"/>
<path d="M353.997 126.472H347.369V97.6465H353.997V126.472Z" fill="#121B49"/>
<path d="M370.37 97.6469C372.354 97.6469 374.221 98.0271 375.971 98.7842C377.72 99.5425 379.248 100.576 380.554 101.884C381.86 103.191 382.891 104.72 383.648 106.472C384.405 108.223 384.784 110.093 384.784 112.079C384.784 114.066 384.405 115.937 383.648 117.687C382.891 119.438 381.859 120.962 380.554 122.255C379.249 123.549 377.72 124.577 375.971 125.334C374.221 126.092 372.355 126.471 370.37 126.471C368.385 126.471 366.519 126.092 364.77 125.334C363.02 124.577 361.499 123.549 360.207 122.255C358.914 120.961 357.89 119.438 357.133 117.687C356.376 115.937 355.998 114.066 355.998 112.079C355.998 110.093 356.376 108.223 357.133 106.472C357.89 104.72 358.915 103.191 360.207 101.884C361.499 100.576 363.021 99.5435 364.77 98.7842C366.519 98.0271 368.387 97.6469 370.37 97.6469ZM370.39 119.844C371.462 119.844 372.468 119.642 373.41 119.235C374.351 118.829 375.174 118.271 375.88 117.564C376.586 116.857 377.142 116.031 377.547 115.088C377.952 114.145 378.155 113.135 378.155 112.061C378.155 110.985 377.952 109.977 377.547 109.033C377.142 108.09 376.586 107.264 375.88 106.557C375.174 105.85 374.351 105.292 373.41 104.886C372.468 104.48 371.462 104.276 370.39 104.276C369.318 104.276 368.311 104.48 367.37 104.886C366.429 105.292 365.605 105.85 364.899 106.557C364.193 107.264 363.638 108.09 363.233 109.033C362.826 109.977 362.625 110.985 362.625 112.061C362.625 113.135 362.827 114.145 363.233 115.088C363.638 116.031 364.193 116.857 364.899 117.564C365.605 118.271 366.429 118.829 367.37 119.235C368.311 119.642 369.318 119.844 370.39 119.844ZM370.567 88.666H376.481L373.308 95.2938H367.356L370.567 88.666Z" fill="#121B49"/>
<path d="M403.372 97.6855H410V126.472H402.823L393.411 109.686V126.472H386.783V97.764H393.999L403.372 114.51V97.6855Z" fill="#121B49"/>
</svg>
