<svg width="201" height="42" viewBox="0 0 201 42" fill="none" xmlns="http://www.w3.org/2000/svg">
<path d="M34.1 5.82012C32.2664 3.96797 30.0823 2.49945 27.6753 1.50022C25.2682 0.500988 22.6862 -0.00896023 20.08 0.000119139C9.15998 0.000119139 0.259976 8.90012 0.259976 19.8201C0.259976 23.3201 1.17998 26.7201 2.89998 29.7201L0.0999756 40.0001L10.6 37.2401C13.5 38.8201 16.76 39.6601 20.08 39.6601C31 39.6601 39.9 30.7601 39.9 19.8401C39.9 14.5401 37.84 9.56012 34.1 5.82012ZM20.08 36.3001C17.12 36.3001 14.22 35.5001 11.68 34.0001L11.08 33.6401L4.83998 35.2801L6.49998 29.2001L6.09998 28.5801C4.45547 25.9541 3.58226 22.9186 3.57998 19.8201C3.57998 10.7401 10.98 3.34012 20.06 3.34012C24.46 3.34012 28.6 5.06012 31.7 8.18012C33.2349 9.70805 34.4514 11.5254 35.2788 13.527C36.1062 15.5285 36.528 17.6743 36.52 19.8401C36.56 28.9201 29.16 36.3001 20.08 36.3001ZM29.12 23.9801C28.62 23.7401 26.18 22.5401 25.74 22.3601C25.28 22.2001 24.96 22.1201 24.62 22.6001C24.28 23.1001 23.34 24.2201 23.06 24.5401C22.78 24.8801 22.48 24.9201 21.98 24.6601C21.48 24.4201 19.88 23.8801 18 22.2001C16.52 20.8801 15.54 19.2601 15.24 18.7601C14.96 18.2601 15.2 18.0001 15.46 17.7401C15.68 17.5201 15.96 17.1601 16.2 16.8801C16.44 16.6001 16.54 16.3801 16.7 16.0601C16.86 15.7201 16.78 15.4401 16.66 15.2001C16.54 14.9601 15.54 12.5201 15.14 11.5201C14.74 10.5601 14.32 10.6801 14.02 10.6601H13.06C12.72 10.6601 12.2 10.7801 11.74 11.2801C11.3 11.7801 10.02 12.9801 10.02 15.4201C10.02 17.8601 11.8 20.2201 12.04 20.5401C12.28 20.8801 15.54 25.8801 20.5 28.0201C21.68 28.5401 22.6 28.8401 23.32 29.0601C24.5 29.4401 25.58 29.3801 26.44 29.2601C27.4 29.1201 29.38 28.0601 29.78 26.9001C30.2 25.7401 30.2 24.7601 30.06 24.5401C29.92 24.3201 29.62 24.2201 29.12 23.9801Z" fill="#25D366"/>
<path d="M63.3537 31L57.527 10.6364H62.2301L65.6009 24.7855H65.7699L69.4886 10.6364H73.5156L77.2244 24.8153H77.4034L80.7741 10.6364H85.4773L79.6506 31H75.4545L71.5767 17.6861H71.4176L67.5497 31H63.3537ZM91.6299 22.1705V31H87.3941V10.6364H91.5105V18.4219H91.6895C92.0342 17.5204 92.591 16.8144 93.36 16.304C94.1289 15.7869 95.0934 15.5284 96.2534 15.5284C97.314 15.5284 98.2388 15.7604 99.0276 16.2244C99.823 16.6818 100.44 17.3414 100.877 18.2031C101.321 19.0582 101.54 20.0824 101.533 21.2756V31H97.2975V22.0312C97.3041 21.09 97.0655 20.3575 96.5816 19.8338C96.1043 19.3101 95.4348 19.0483 94.573 19.0483C93.9963 19.0483 93.4859 19.1709 93.0418 19.4162C92.6043 19.6615 92.2596 20.0194 92.0077 20.4901C91.7624 20.9541 91.6365 21.5142 91.6299 22.1705ZM108.914 31.2884C107.939 31.2884 107.071 31.1193 106.309 30.7812C105.546 30.4366 104.943 29.9295 104.499 29.2599C104.062 28.5838 103.843 27.742 103.843 26.7344C103.843 25.8859 103.999 25.1733 104.31 24.5966C104.622 24.0199 105.046 23.5559 105.583 23.2045C106.12 22.8532 106.73 22.5881 107.412 22.4091C108.102 22.2301 108.824 22.1042 109.58 22.0312C110.468 21.9384 111.184 21.8523 111.728 21.7727C112.271 21.6866 112.666 21.5606 112.911 21.3949C113.156 21.2292 113.279 20.9839 113.279 20.6591V20.5994C113.279 19.9697 113.08 19.4825 112.682 19.1378C112.291 18.7931 111.734 18.6207 111.012 18.6207C110.25 18.6207 109.643 18.7898 109.192 19.1278C108.741 19.4593 108.443 19.8769 108.297 20.3807L104.38 20.0625C104.579 19.1345 104.97 18.3324 105.553 17.6562C106.136 16.9735 106.889 16.4498 107.81 16.0852C108.738 15.714 109.812 15.5284 111.032 15.5284C111.88 15.5284 112.692 15.6278 113.468 15.8267C114.25 16.0256 114.943 16.3338 115.546 16.7514C116.156 17.169 116.636 17.706 116.988 18.3622C117.339 19.0118 117.515 19.7907 117.515 20.6989V31H113.498V28.8821H113.378C113.133 29.3594 112.805 29.7803 112.394 30.1449C111.983 30.5028 111.489 30.7846 110.912 30.9901C110.336 31.1889 109.67 31.2884 108.914 31.2884ZM110.127 28.3651C110.75 28.3651 111.3 28.2424 111.777 27.9972C112.255 27.7453 112.629 27.4072 112.901 26.983C113.173 26.5587 113.309 26.0781 113.309 25.5412V23.9205C113.176 24.0066 112.994 24.0862 112.762 24.1591C112.536 24.2254 112.281 24.2884 111.996 24.348C111.711 24.401 111.426 24.4508 111.141 24.4972C110.856 24.5369 110.598 24.5734 110.366 24.6065C109.868 24.6795 109.434 24.7955 109.063 24.9545C108.692 25.1136 108.403 25.3291 108.198 25.6009C107.992 25.866 107.89 26.1974 107.89 26.5952C107.89 27.1719 108.098 27.6127 108.516 27.9176C108.94 28.2159 109.477 28.3651 110.127 28.3651ZM128.616 15.7273V18.9091H119.419V15.7273H128.616ZM121.507 12.0682H125.743V26.3068C125.743 26.6979 125.803 27.0028 125.922 27.2216C126.041 27.4337 126.207 27.5829 126.419 27.669C126.638 27.7552 126.89 27.7983 127.175 27.7983C127.374 27.7983 127.572 27.7817 127.771 27.7486C127.97 27.7088 128.123 27.679 128.229 27.6591L128.895 30.8111C128.683 30.8774 128.384 30.9536 128 31.0398C127.616 31.1326 127.148 31.1889 126.598 31.2088C125.577 31.2486 124.682 31.1127 123.913 30.8011C123.151 30.4896 122.558 30.0057 122.134 29.3494C121.709 28.6932 121.5 27.8646 121.507 26.8636V12.0682ZM143.584 20.0824L139.706 20.321C139.64 19.9896 139.497 19.6913 139.278 19.4261C139.06 19.1544 138.771 18.9389 138.413 18.7798C138.062 18.6141 137.641 18.5312 137.15 18.5312C136.494 18.5312 135.941 18.6705 135.49 18.9489C135.039 19.2206 134.814 19.5852 134.814 20.0426C134.814 20.4072 134.96 20.7154 135.251 20.9673C135.543 21.2192 136.043 21.4214 136.753 21.5739L139.517 22.1307C141.002 22.4356 142.109 22.9261 142.838 23.6023C143.567 24.2784 143.932 25.1667 143.932 26.267C143.932 27.268 143.637 28.1463 143.047 28.902C142.463 29.6577 141.661 30.2476 140.641 30.6719C139.626 31.0895 138.456 31.2983 137.131 31.2983C135.109 31.2983 133.498 30.8774 132.298 30.0355C131.105 29.187 130.406 28.0336 130.2 26.5753L134.366 26.3565C134.492 26.973 134.797 27.4437 135.281 27.7685C135.765 28.0866 136.385 28.2457 137.141 28.2457C137.883 28.2457 138.48 28.1032 138.93 27.8182C139.388 27.5265 139.62 27.152 139.626 26.6946C139.62 26.3101 139.457 25.9953 139.139 25.75C138.821 25.4981 138.33 25.3059 137.668 25.1733L135.023 24.6463C133.531 24.348 132.421 23.831 131.692 23.0952C130.969 22.3594 130.608 21.4214 130.608 20.2812C130.608 19.3002 130.873 18.455 131.403 17.7457C131.94 17.0365 132.693 16.4896 133.66 16.1051C134.635 15.7206 135.775 15.5284 137.081 15.5284C139.01 15.5284 140.528 15.9361 141.635 16.7514C142.748 17.5668 143.398 18.6771 143.584 20.0824ZM149.88 31H145.267L152.297 10.6364H157.845L164.865 31H160.251L155.15 15.2898H154.991L149.88 31ZM149.592 22.9957H160.49V26.3565H149.592V22.9957ZM166.928 36.7273V15.7273H171.104V18.2926H171.293C171.479 17.8816 171.747 17.464 172.099 17.0398C172.457 16.6089 172.921 16.2509 173.491 15.9659C174.067 15.6742 174.783 15.5284 175.639 15.5284C176.752 15.5284 177.78 15.8201 178.721 16.4034C179.662 16.9801 180.415 17.8518 180.978 19.0185C181.541 20.1785 181.823 21.6335 181.823 23.3835C181.823 25.0871 181.548 26.5256 180.998 27.6989C180.454 28.8655 179.712 29.7505 178.771 30.3537C177.836 30.9503 176.789 31.2486 175.629 31.2486C174.807 31.2486 174.107 31.1127 173.531 30.8409C172.96 30.5691 172.493 30.2277 172.129 29.8168C171.764 29.3991 171.486 28.9782 171.293 28.554H171.164V36.7273H166.928ZM171.075 23.3636C171.075 24.2718 171.201 25.0639 171.452 25.7401C171.704 26.4162 172.069 26.9432 172.546 27.321C173.023 27.6922 173.603 27.8778 174.286 27.8778C174.976 27.8778 175.559 27.6889 176.036 27.3111C176.514 26.9266 176.875 26.3963 177.12 25.7202C177.372 25.0374 177.498 24.2519 177.498 23.3636C177.498 22.482 177.375 21.7064 177.13 21.0369C176.885 20.3674 176.523 19.8437 176.046 19.4659C175.569 19.0881 174.982 18.8991 174.286 18.8991C173.597 18.8991 173.014 19.0814 172.536 19.446C172.066 19.8106 171.704 20.3277 171.452 20.9972C171.201 21.6667 171.075 22.4555 171.075 23.3636ZM184.339 36.7273V15.7273H188.515V18.2926H188.704C188.89 17.8816 189.158 17.464 189.509 17.0398C189.867 16.6089 190.331 16.2509 190.902 15.9659C191.478 15.6742 192.194 15.5284 193.049 15.5284C194.163 15.5284 195.19 15.8201 196.132 16.4034C197.073 16.9801 197.825 17.8518 198.389 19.0185C198.952 20.1785 199.234 21.6335 199.234 23.3835C199.234 25.0871 198.959 26.5256 198.409 27.6989C197.865 28.8655 197.123 29.7505 196.181 30.3537C195.247 30.9503 194.199 31.2486 193.039 31.2486C192.217 31.2486 191.518 31.1127 190.941 30.8409C190.371 30.5691 189.904 30.2277 189.539 29.8168C189.175 29.3991 188.896 28.9782 188.704 28.554H188.575V36.7273H184.339ZM188.485 23.3636C188.485 24.2718 188.611 25.0639 188.863 25.7401C189.115 26.4162 189.48 26.9432 189.957 27.321C190.434 27.6922 191.014 27.8778 191.697 27.8778C192.386 27.8778 192.97 27.6889 193.447 27.3111C193.924 26.9266 194.286 26.3963 194.531 25.7202C194.783 25.0374 194.909 24.2519 194.909 23.3636C194.909 22.482 194.786 21.7064 194.541 21.0369C194.295 20.3674 193.934 19.8437 193.457 19.4659C192.98 19.0881 192.393 18.8991 191.697 18.8991C191.008 18.8991 190.424 19.0814 189.947 19.446C189.476 19.8106 189.115 20.3277 188.863 20.9972C188.611 21.6667 188.485 22.4555 188.485 23.3636Z" fill="#25D366"/>
</svg>
