<svg width="40" height="55" viewBox="0 0 40 55" fill="none" xmlns="http://www.w3.org/2000/svg">
<path d="M19.9797 54.2256C18.4664 52.4777 16.979 50.8091 15.549 49.0977C12.5888 45.5554 9.80942 41.8905 7.34123 38.0231C4.50716 33.5824 1.97077 29.0084 0.664669 23.9279C-0.815869 18.1693 0.145925 12.7955 3.86248 7.98465C7.03523 3.87742 11.3328 1.35311 16.6702 0.513109C22.2776 -0.369502 27.4264 0.777981 31.9687 3.98211C36.2185 6.97978 38.8063 10.9989 39.7234 15.9681C40.4731 20.0303 39.6171 23.877 38.1411 27.6608C36.4213 32.0694 33.9999 36.1345 31.321 40.0728C27.9506 45.0274 24.157 49.6807 19.9797 54.2256ZM20.0269 12.3844C16.0739 12.3713 12.908 15.3438 12.8862 19.0885C12.8644 22.8745 15.9935 25.7969 20.1085 25.8336C23.9484 25.8679 27.1527 22.7962 27.1383 19.0947C27.1236 15.3395 24.006 12.3977 20.0269 12.3844Z" fill="#DCE2E5" fill-opacity="0.5"/>
</svg>
