<svg width="130" height="130" viewBox="0 0 130 130" fill="none" xmlns="http://www.w3.org/2000/svg">
<path d="M6.565 0L0 6.565L11.565 26.565L19.065 25.465L64.845 71.25L60.94 75C58.94 77 58.94 80.03 60.94 82.03L62.97 84.065C64.97 86.065 68.03 86.065 69.53 84.065L75.47 90C74.97 93 75.47 96.565 77.97 99.065L105 125.94C110.5 131.44 119.5 131.44 125 125.94C131.5 119.94 131.44 110.97 125.94 105.47L99.065 78.435C96.565 75.935 93 74.935 90 75.935L83.435 70C84.935 68 84.935 64.94 83.435 63.435L81.56 61.565C81.1055 61.091 80.5598 60.7138 79.9557 60.4562C79.3516 60.1985 78.7017 60.0657 78.045 60.0657C77.3883 60.0657 76.7384 60.1985 76.1343 60.4562C75.5302 60.7138 74.9845 61.091 74.53 61.565L71.25 64.845L25.47 19.065L26.56 11.565L6.565 0ZM104.065 0.155C94.2 -0.665 81.12 5.875 75 11.56C67.47 19.09 68.7 28.935 74.685 38.44L64.065 49.065L71.565 57.5C75.565 54 81.465 54 85.465 57.5L87.5 59.53L87.97 60L92.345 55.625C101.385 60.94 110.795 61.705 117.97 54.53C124.97 48.03 132.56 32 129.06 22.5L115 37.03C113 39.03 109.97 39.03 107.97 37.03L93.435 22.5C92.961 22.0455 92.5838 21.4998 92.3262 20.8957C92.0685 20.2916 91.9357 19.6417 91.9357 18.985C91.9357 18.3283 92.0685 17.6784 92.3262 17.0743C92.5838 16.4702 92.961 15.9245 93.435 15.47L107.975 0.94C106.725 0.5 105.475 0.275 104.065 0.155ZM49.065 62.5L30.935 80.625C28.9868 80.1922 26.9956 79.9825 25 80C11 80 0 91 0 105C0 119 11 130 25 130C39 130 50 119 50 105C50 102.435 49.595 99.97 48.905 97.655L59.53 87.03L57.97 85C53.97 81 54 74.94 57.5 70.935L49.065 62.5ZM87.815 85.315C88.44 85.315 89.03 85.435 89.53 85.94L119.065 115.47C120.065 116.47 120.065 118.06 119.065 119.06C118.065 120.06 116.465 120.06 115.465 119.06L85.94 89.53C84.94 88.53 84.94 86.94 85.94 85.94C86.44 85.44 87.19 85.315 87.815 85.315ZM28.44 92.025L37.97 101.56L34.53 114.525L21.565 117.965L12.03 108.43L15.47 95.465L28.44 92.025Z" fill="#F4F6F5"/>
</svg>
