<svg width="54" height="55" viewBox="0 0 54 55" fill="none" xmlns="http://www.w3.org/2000/svg">
<path d="M0.000144222 27.2474C-0.022259 12.4015 12.1144 0.288161 26.9158 0.257871C41.845 0.227299 53.6069 12.2378 53.9898 26.4528C54.4085 42.0018 41.8755 54.0757 27.392 54.2557C12.1974 54.4445 -0.0484665 42.0858 0.000144222 27.2474ZM5.37734 27.224C5.42996 39.3079 15.0021 48.7272 26.7233 48.8566C38.9347 48.9912 48.438 39.3161 48.6029 27.5998C48.775 15.3612 39.0403 5.65685 27.0288 5.65009C14.992 5.64339 5.45631 15.2307 5.37734 27.224Z" fill="#DCE2E5" fill-opacity="0.5"/>
<path d="M29.6823 19.6606C29.6823 21.691 29.6776 23.7216 29.6913 25.752C29.6924 25.9133 29.7813 26.1133 29.8963 26.2285C32.2572 28.5944 34.6345 30.9439 36.9942 33.311C38.39 34.7111 37.9144 37.027 36.07 37.7295C34.993 38.1398 33.9892 37.9147 33.1595 37.0932C30.9266 34.8822 28.7018 32.6631 26.4739 30.447C25.9997 29.9753 25.5219 29.5071 25.0541 29.0291C24.5572 28.5214 24.3112 27.9111 24.3114 27.1951C24.3123 22.6998 24.3057 18.2045 24.3074 13.7093C24.308 12.2568 25.5251 11.0554 26.9815 11.0508C28.4493 11.0461 29.6709 12.2212 29.6794 13.6748C29.691 15.6699 29.6822 17.6652 29.6823 19.6606Z" fill="#DCE2E5" fill-opacity="0.5"/>
</svg>
