<svg width="130" height="148" viewBox="0 0 130 148" fill="none" xmlns="http://www.w3.org/2000/svg">
<path d="M28.9859 49.8621C28.9859 47.8786 28.9858 46.3353 28.9859 44.7921C28.9871 31.9851 29.0455 19.1774 28.9542 6.3714C28.9274 2.61842 29.8663 0.908615 33.1711 0.939874C48.6671 1.08658 64.1651 0.936925 79.6607 1.1115C81.1835 1.12861 83.026 2.20497 84.1556 3.52596C89.23 9.45939 94.1948 15.5496 98.975 21.8428C100.105 23.3307 100.871 25.7984 100.939 27.8588C101.175 35.0107 101.03 42.182 101.03 49.8706C107.581 49.8706 113.728 49.8675 119.875 49.8714C127.883 49.8764 129.994 52.4875 129.995 62.3938C129.997 78.9423 130.008 95.4906 129.99 112.039C129.981 119.536 127.337 122.749 121.217 122.773C116.346 122.792 111.475 122.777 106.128 122.777C106.128 115.73 106.137 109.025 106.126 102.319C106.114 94.245 104.153 91.8616 97.5164 91.8602C75.7274 91.8554 53.9385 91.8522 32.1496 91.8624C25.9891 91.8653 23.9318 94.3703 23.9039 101.904C23.8788 108.655 23.8987 115.407 23.8987 122.546C17.6745 122.546 11.6524 122.875 5.66985 122.416C2.36259 122.163 0.0804181 118.223 0.0625094 113.753C-0.0109163 95.4781 -0.0293026 77.2024 0.0601216 58.928C0.0878204 53.2761 3.10496 49.9703 8.06365 49.8894C14.8165 49.7794 21.5716 49.8621 28.9859 49.8621ZM34.2828 49.5844C54.9532 49.5844 75.2649 49.5844 95.6139 49.5844C95.6139 42.5167 95.6139 35.7228 95.6139 28.6863C91.285 28.6863 87.2253 28.7022 83.1659 28.6818C79.1094 28.6613 78.597 28.0394 78.5626 22.9284C78.5281 17.8114 78.555 12.6938 78.555 7.55083C63.4803 7.55083 48.9027 7.55083 34.2828 7.55083C34.2828 21.6582 34.2828 35.4206 34.2828 49.5844ZM121.292 66.072C121.22 62.9969 119.287 60.6604 117.029 60.6308C114.656 60.5997 112.593 63.1711 112.655 66.0824C112.718 69.064 114.792 71.3844 117.269 71.1379C119.904 70.8757 121.056 68.8321 121.292 66.072ZM83.898 22.0286C86.6501 22.0286 89.0221 22.0286 90.6822 22.0286C88.5855 19.1698 86.3287 16.0926 83.898 12.7784C83.898 15.9896 83.898 18.9235 83.898 22.0286Z" fill="#F4F6F5"/>
<path d="M64.9656 147.936C54.0101 147.936 43.0546 147.947 32.0991 147.93C28.0053 147.924 27.5197 147.328 27.5118 142.17C27.4914 128.784 27.4908 115.398 27.5107 102.012C27.5181 97.044 28.135 96.2832 32.1894 96.2799C54.1004 96.2627 76.0113 96.2612 97.9222 96.2813C101.92 96.2849 102.504 97.0391 102.511 102.126C102.532 115.512 102.532 128.898 102.509 142.284C102.5 147.363 102.014 147.926 97.832 147.931C86.8764 147.945 75.9209 147.936 64.9656 147.936ZM32.8572 141.423C54.5099 141.423 75.767 141.423 97.0453 141.423C97.0453 128.407 97.0453 115.691 97.0453 102.994C75.519 102.994 54.2619 102.994 32.8572 102.994C32.8572 115.908 32.8572 128.52 32.8572 141.423Z" fill="#F4F6F5"/>
<path d="M65.32 40.9733C58.1017 40.9672 50.8833 40.9679 43.6651 40.9666C41.7587 40.9663 39.593 41.1154 39.6996 37.7353C39.7924 34.7942 41.7289 34.7371 43.5713 34.7396C57.8916 34.7589 72.2119 34.7639 86.5321 34.7364C88.4187 34.7327 90.274 34.9393 90.3411 37.8378C90.4112 40.8687 88.4679 40.9846 86.6258 40.9825C79.5239 40.9746 72.4219 40.9793 65.32 40.9733Z" fill="#F4F6F5"/>
<path d="M56.1188 25.9724C51.8114 25.9712 47.4917 26.1922 43.2041 25.8322C41.9702 25.7285 40.0499 24.1744 39.8085 22.8932C39.3251 20.3277 41.2041 19.6839 42.9916 19.6812C51.8392 19.6683 60.6886 19.5692 69.5322 19.8033C70.6152 19.8319 71.6666 21.6781 72.7326 22.6821C71.6186 23.7793 70.5519 25.7231 69.382 25.8229C64.9791 26.1986 60.5426 25.9736 56.1188 25.9724Z" fill="#F4F6F5"/>
<path d="M64.7945 132.896C57.3498 132.896 49.9051 132.903 42.4604 132.891C40.5807 132.888 38.3273 133.071 38.2598 129.853C38.1861 126.347 40.526 126.47 42.549 126.47C57.5547 126.468 72.5604 126.471 87.5663 126.468C89.4747 126.468 91.6785 126.362 91.7626 129.534C91.8572 133.096 89.4738 132.886 87.4776 132.89C79.9166 132.906 72.3556 132.897 64.7945 132.896Z" fill="#F4F6F5"/>
<path d="M65.3722 111.503C72.9362 111.503 80.5001 111.53 88.0638 111.485C89.9617 111.473 91.8252 111.699 91.8154 114.611C91.8057 117.514 89.9295 117.734 88.0412 117.731C72.6808 117.706 57.3202 117.71 41.9598 117.735C40.0775 117.738 38.214 117.536 38.22 114.589C38.2261 111.621 40.1147 111.482 41.9825 111.489C49.7789 111.52 57.5756 111.502 65.3722 111.503Z" fill="#F4F6F5"/>
</svg>
