<svg width="158" height="130" viewBox="0 0 158 130" fill="none" xmlns="http://www.w3.org/2000/svg">
<path d="M158 97.5531C157.321 99.3234 156.047 99.8847 154.323 99.8834C120.854 99.859 87.3852 99.8666 53.9162 99.8632C51.1409 99.8629 50.2341 98.8879 50.2333 95.8858C50.2281 73.6649 50.2286 51.4441 50.2327 29.2232C50.2333 26.134 51.137 25.15 54.0008 25.1495C87.4184 25.1444 120.836 25.1501 154.253 25.1348C155.938 25.134 157.276 25.6329 158 27.3886C158 50.7766 158 74.1648 158 97.5531Z" fill="#F4F6F5"/>
<path d="M0 4.22084C0.965525 1.77028 2.71195 0.936358 5.14737 0.944393C22.4254 1.00193 39.7036 0.973807 56.9818 0.976103C60.5874 0.976534 62.0296 2.51611 62.0319 6.34971C62.0339 9.76203 62.0323 13.1744 62.0323 16.8211C61.3494 16.8211 60.7557 16.8211 60.162 16.8211C44.5347 16.8211 28.9074 16.8211 13.2802 16.8213C12.8174 16.8213 12.354 16.8074 11.8919 16.8282C9.62395 16.9302 7.88167 18.7145 7.85237 20.9539C7.82186 23.2856 9.55237 25.1221 11.9521 25.1298C21.5166 25.1604 31.0814 25.1445 40.6461 25.1458C41.2535 25.1459 41.8607 25.1458 42.4388 25.1458C42.4388 28.7903 42.4388 32.2769 42.4388 35.9296C41.631 35.9296 41.0274 35.9296 40.4236 35.9296C31.0646 35.9297 21.7057 35.9433 12.3466 35.9149C10.988 35.9108 9.78971 36.2094 8.87515 37.3228C7.87939 38.5352 7.54734 39.9681 8.11271 41.4771C8.68518 43.005 9.78623 43.9667 11.3468 44.1962C11.8528 44.2707 12.3732 44.242 12.8871 44.2421C22.0918 44.2444 31.2966 44.2437 40.5012 44.2437C41.0629 44.2437 41.6243 44.2437 42.3095 44.2437C42.3095 47.7797 42.3095 51.2185 42.3095 54.8513C41.7315 54.8784 41.1412 54.9299 40.551 54.9304C31.2434 54.9355 21.9358 54.9439 12.6282 54.9248C11.0021 54.9215 9.57485 55.2749 8.58591 56.8056C6.93875 59.355 8.34617 62.793 11.2248 63.1943C11.8335 63.2791 12.4559 63.2734 13.072 63.2737C22.1739 63.2783 31.2757 63.2768 40.3776 63.2768C40.9859 63.2768 41.5942 63.2768 42.4333 63.2768C42.4333 64.0645 42.4333 64.7033 42.4333 65.3423C42.4335 75.5452 42.4477 85.7482 42.4277 95.951C42.418 100.899 44.1648 104.805 48.4163 106.965C49.9365 107.737 51.7615 108.009 53.4697 108.123C56.2314 108.308 59.0116 108.173 61.9233 108.173C61.963 108.717 62.0267 109.187 62.0273 109.658C62.0344 114.787 62.0395 119.916 62.0289 125.045C62.0224 128.219 60.4448 129.916 57.4443 129.918C39.8576 129.929 22.2709 129.906 4.68421 129.944C2.37602 129.949 0.904118 128.851 0 126.678C0 85.8588 0 45.0399 0 4.22084ZM30.9875 105.508C34.2743 105.524 36.9855 102.659 37.0078 99.1457C37.03 95.6711 34.2991 92.705 31.0521 92.677C27.82 92.6492 25.0484 95.5946 25.0299 99.0764C25.0116 102.579 27.7101 105.492 30.9875 105.508Z" fill="#F4F6F5"/>
<path d="M91.665 121.573C91.665 117.004 91.665 112.714 91.665 108.301C99.9426 108.301 108.132 108.301 116.496 108.301C116.496 112.615 116.496 116.943 116.496 121.453C117.194 121.498 117.731 121.561 118.269 121.564C121.043 121.575 123.818 121.529 126.592 121.586C129.029 121.636 130.757 123.385 130.78 125.694C130.804 128.027 128.98 129.907 126.506 129.911C111.555 129.936 96.6038 129.937 81.6526 129.909C79.1552 129.904 77.4133 128.053 77.4495 125.655C77.4847 123.32 79.1754 121.623 81.6426 121.585C84.9207 121.535 88.2002 121.573 91.665 121.573Z" fill="#F4F6F5"/>
</svg>
