<svg width="50" height="51" viewBox="0 0 50 51" fill="none" xmlns="http://www.w3.org/2000/svg">
<path d="M14.9352 19.2113C18.7851 26.1211 24.1405 31.4941 31.0562 35.3725C31.2426 35.0646 31.4166 34.7636 31.6037 34.471C32.1589 33.6024 32.6613 32.6923 33.2886 31.8791C35.055 29.5891 38.1486 28.8636 40.7108 30.1904C42.6142 31.1761 44.471 32.2595 46.3016 33.3766C49.7826 35.501 50.8694 40.164 49.122 43.7914C48.156 45.7969 46.8367 47.5279 44.8965 48.6799C41.4445 50.7296 37.8862 50.8798 34.3194 49.0204C29.2532 46.3794 24.4103 43.3799 20.0057 39.7157C14.7757 35.3646 10.2512 30.3692 6.44778 24.7253C4.45883 21.7739 2.62075 18.7237 1.07339 15.5216C-1.11848 10.9855 0.132102 5.84543 4.04374 2.6531C5.94175 1.10409 8.06569 0.24064 10.5426 0.371383C13.6675 0.536377 15.9411 2.07438 17.4842 4.74527C18.3217 6.19495 19.1418 7.65621 19.9205 9.13818C21.1946 11.563 21.0523 13.8963 19.3601 16.0937C18.7918 16.8317 18.0129 17.3099 17.2472 17.7993C16.4928 18.2815 15.7195 18.734 14.9352 19.2113Z" fill="#E8E6E7" fill-opacity="0.5"/>
<path d="M49.8998 24.6986C49.9735 25.279 49.9638 25.8506 49.5793 26.3317C49.1348 26.8878 48.5413 27.0718 47.8543 26.9122C47.1725 26.754 46.7953 26.2751 46.6863 25.6166C46.5496 24.7911 46.454 23.9574 46.3756 23.124C45.9452 18.5454 44.2781 14.4932 41.2099 11.0545C37.7129 7.13498 33.3778 4.71727 28.1703 3.93136C27.2011 3.78509 26.2133 3.7652 25.2364 3.66426C24.9263 3.6322 24.6156 3.55014 24.3192 3.44935C23.6562 3.22379 23.3467 2.77057 23.3426 2.07597C23.338 1.30143 23.6625 0.726136 24.3069 0.525286C24.7172 0.397459 25.1662 0.302208 25.5904 0.325893C30.8199 0.618059 35.6746 2.0544 39.8645 5.2965C44.6244 8.9798 47.9051 13.6839 49.239 19.6157C49.6129 21.2782 49.7527 22.9935 49.9999 24.6846C49.9666 24.6893 49.9332 24.6939 49.8998 24.6986Z" fill="#E8E6E7" fill-opacity="0.5"/>
<path d="M26.567 7.79199C28.4058 7.88804 30.1525 8.23472 31.8092 8.92786C37.2428 11.2014 40.6964 15.1924 42.0218 20.9532C42.2785 22.0686 42.3395 23.2342 42.4275 24.3815C42.4793 25.058 42.1617 25.6141 41.542 25.9347C40.9547 26.2386 40.3645 26.1956 39.8226 25.8115C39.3897 25.5047 39.1863 25.0607 39.1527 24.5359C39.0562 23.0302 38.9296 21.5182 38.3704 20.1069C36.4345 15.2214 32.9921 12.1318 27.7025 11.3131C27.0331 11.2094 26.3508 11.1935 25.6761 11.121C24.566 11.0018 23.9277 10.0423 24.2394 8.97246C24.4268 8.32888 24.883 7.99292 25.5238 7.89679C25.883 7.84286 26.2472 7.82304 26.567 7.79199Z" fill="#E8E6E7" fill-opacity="0.5"/>
<path d="M26.9546 15.3055C31.2628 15.4421 34.9137 19.1657 34.96 23.4794C34.9735 24.7323 33.9897 25.551 32.8414 25.2425C32.1815 25.0652 31.7381 24.5417 31.6648 23.8274C31.5678 22.8812 31.4404 21.9448 30.9218 21.1159C29.9646 19.5856 28.5914 18.7578 26.7834 18.6652C25.8829 18.6191 25.3305 18.2373 25.0822 17.4943C24.7227 16.418 25.4911 15.3292 26.6273 15.3058C26.7364 15.3035 26.8455 15.3055 26.9546 15.3055Z" fill="#E8E6E7" fill-opacity="0.5"/>
</svg>
